<?xml version="1.0" encoding="UTF-8" standalone="no"?>
<!-- Created with Inkscape (http://www.inkscape.org/) -->

<svg
   xmlns:dc="http://purl.org/dc/elements/1.1/"
   xmlns:cc="http://creativecommons.org/ns#"
   xmlns:rdf="http://www.w3.org/1999/02/22-rdf-syntax-ns#"
   xmlns:svg="http://www.w3.org/2000/svg"
   xmlns="http://www.w3.org/2000/svg"
   xmlns:sodipodi="http://sodipodi.sourceforge.net/DTD/sodipodi-0.dtd"
   xmlns:inkscape="http://www.inkscape.org/namespaces/inkscape"
   width="5.5734019in"
   height="2.7345984in"
   viewBox="0 0 501.60619 246.11384"
   id="svg2"
   version="1.1"
   inkscape:version="0.91 r13725"
   sodipodi:docname="HFG_space.svg">
  <sodipodi:namedview
     id="base"
     pagecolor="#ffffff"
     bordercolor="#666666"
     borderopacity="1.0"
     inkscape:pageopacity="0.0"
     inkscape:pageshadow="2"
     inkscape:zoom="1.4142135"
     inkscape:cx="182.80239"
     inkscape:cy="25.965453"
     inkscape:document-units="px"
     inkscape:current-layer="layer1"
     showgrid="true"
     inkscape:snap-global="false"
     inkscape:window-width="1430"
     inkscape:window-height="938"
     inkscape:window-x="374"
     inkscape:window-y="89"
     inkscape:window-maximized="0"
     fit-margin-top="0.05"
     fit-margin-left="0.05"
     fit-margin-right="0.05"
     fit-margin-bottom="0.05"
     units="in">
    <inkscape:grid
       originy="-796.61553"
       originx="-22.009541"
       id="grid4235"
       type="xygrid" />
  </sodipodi:namedview>
  <defs
     id="defs4">
    <marker
       inkscape:stockid="TriangleInM"
       orient="auto"
       refY="0"
       refX="0"
       id="marker5452"
       style="overflow:visible"
       inkscape:isstock="true">
      <path
         id="path5454"
         d="m 5.77,0 -8.65,5 0,-10 8.65,5 z"
         style="fill:#000000;fill-opacity:1;fill-rule:evenodd;stroke:#000000;stroke-width:1pt;stroke-opacity:1"
         transform="scale(-0.4,-0.4)"
         inkscape:connector-curvature="0" />
    </marker>
    <marker
       inkscape:collect="always"
       inkscape:isstock="true"
       style="overflow:visible"
       id="TriangleInM"
       refX="0"
       refY="0"
       orient="auto"
       inkscape:stockid="TriangleInM">
      <path
         transform="scale(-0.4,-0.4)"
         style="fill:#000000;fill-opacity:1;fill-rule:evenodd;stroke:#000000;stroke-width:1pt;stroke-opacity:1"
         d="m 5.77,0 -8.65,5 0,-10 8.65,5 z"
         id="path5177"
         inkscape:connector-curvature="0" />
    </marker>
    <marker
       inkscape:isstock="true"
       style="overflow:visible"
       id="marker5297"
       refX="0"
       refY="0"
       orient="auto"
       inkscape:stockid="TriangleOutM">
      <path
         transform="scale(0.4,0.4)"
         style="fill:#000000;fill-opacity:1;fill-rule:evenodd;stroke:#000000;stroke-width:1pt;stroke-opacity:1"
         d="m 5.77,0 -8.65,5 0,-10 8.65,5 z"
         id="path5186"
         inkscape:connector-curvature="0" />
    </marker>
    <marker
       inkscape:stockid="TriangleInM"
       orient="auto"
       refY="0"
       refX="0"
       id="marker6231"
       style="overflow:visible"
       inkscape:isstock="true">
      <path
         inkscape:connector-curvature="0"
         id="path6233"
         d="m 5.77,0 -8.65,5 0,-10 8.65,5 z"
         style="fill:#000000;fill-opacity:1;fill-rule:evenodd;stroke:#000000;stroke-width:1pt;stroke-opacity:1"
         transform="scale(-0.4,-0.4)" />
    </marker>
    <marker
       inkscape:isstock="true"
       style="overflow:visible"
       id="SquareM"
       refX="0"
       refY="0"
       orient="auto"
       inkscape:stockid="SquareM">
      <path
         inkscape:connector-curvature="0"
         transform="scale(0.4,0.4)"
         style="fill:#000000;fill-opacity:1;fill-rule:evenodd;stroke:#000000;stroke-width:1pt;stroke-opacity:1"
         d="M -5,-5 -5,5 5,5 5,-5 -5,-5 Z"
         id="path5635" />
    </marker>
    <marker
       inkscape:isstock="true"
       style="overflow:visible"
       id="Arrow2Mstart"
       refX="0"
       refY="0"
       orient="auto"
       inkscape:stockid="Arrow2Mstart">
      <path
         inkscape:connector-curvature="0"
         transform="scale(0.6,0.6)"
         d="M 8.7185878,4.0337352 -2.2072895,0.01601326 8.7185884,-4.0017078 c -1.7454984,2.3720609 -1.7354408,5.6174519 -6e-7,8.035443 z"
         style="fill:#000000;fill-opacity:1;fill-rule:evenodd;stroke:#000000;stroke-width:0.625;stroke-linejoin:round;stroke-opacity:1"
         id="path5586" />
    </marker>
    <marker
       inkscape:isstock="true"
       style="overflow:visible"
       id="marker5960"
       refX="0"
       refY="0"
       orient="auto"
       inkscape:stockid="TriangleOutM">
      <path
         inkscape:connector-curvature="0"
         transform="scale(0.4,0.4)"
         style="fill:#000000;fill-opacity:1;fill-rule:evenodd;stroke:#000000;stroke-width:1pt;stroke-opacity:1"
         d="m 5.77,0 -8.65,5 0,-10 8.65,5 z"
         id="path5962" />
    </marker>
    <marker
       inkscape:collect="always"
       inkscape:stockid="TriangleOutM"
       orient="auto"
       refY="0"
       refX="0"
       id="marker5914"
       style="overflow:visible"
       inkscape:isstock="true">
      <path
         inkscape:connector-curvature="0"
         id="path5916"
         d="m 5.77,0 -8.65,5 0,-10 8.65,5 z"
         style="fill:#000000;fill-opacity:1;fill-rule:evenodd;stroke:#000000;stroke-width:1pt;stroke-opacity:1"
         transform="scale(0.4,0.4)" />
    </marker>
    <marker
       inkscape:collect="always"
       inkscape:isstock="true"
       style="overflow:visible"
       id="TriangleOutM"
       refX="0"
       refY="0"
       orient="auto"
       inkscape:stockid="TriangleOutM">
      <path
         inkscape:connector-curvature="0"
         transform="scale(0.4,0.4)"
         style="fill:#000000;fill-opacity:1;fill-rule:evenodd;stroke:#000000;stroke-width:1pt;stroke-opacity:1"
         d="m 5.77,0 -8.65,5 0,-10 8.65,5 z"
         id="path5707" />
    </marker>
    <marker
       inkscape:isstock="true"
       style="overflow:visible"
       id="Arrow1Mend"
       refX="0"
       refY="0"
       orient="auto"
       inkscape:stockid="Arrow1Mend">
      <path
         inkscape:connector-curvature="0"
         transform="matrix(-0.4,0,0,-0.4,-4,0)"
         style="fill:#000000;fill-opacity:1;fill-rule:evenodd;stroke:#000000;stroke-width:1pt;stroke-opacity:1"
         d="M 0,0 5,-5 -12.5,0 5,5 0,0 Z"
         id="path5571" />
    </marker>
    <marker
       inkscape:isstock="true"
       style="overflow:visible"
       id="Arrow1Lend"
       refX="0"
       refY="0"
       orient="auto"
       inkscape:stockid="Arrow1Lend">
      <path
         inkscape:connector-curvature="0"
         transform="matrix(-0.8,0,0,-0.8,-10,0)"
         style="fill:#000000;fill-opacity:1;fill-rule:evenodd;stroke:#000000;stroke-width:1pt;stroke-opacity:1"
         d="M 0,0 5,-5 -12.5,0 5,5 0,0 Z"
         id="path5565" />
    </marker>
    <inkscape:perspective
       id="perspective4237"
       inkscape:persp3d-origin="372.04725 : 350.78735 : 1"
       inkscape:vp_z="744.09451 : 526.18104 : 1"
       inkscape:vp_y="0 : 999.9999 : 0"
       inkscape:vp_x="0 : 526.18104 : 1"
       sodipodi:type="inkscape:persp3d" />
  </defs>
  <metadata
     id="metadata7">
    <rdf:RDF>
      <cc:Work
         rdf:about="">
        <dc:format>image/svg+xml</dc:format>
        <dc:type
           rdf:resource="http://purl.org/dc/dcmitype/StillImage" />
        <dc:title></dc:title>
      </cc:Work>
    </rdf:RDF>
  </metadata>
  <g
     transform="translate(-22.009535,-9.632751)"
     id="layer1"
     inkscape:groupmode="layer"
     inkscape:label="Layer 1">
    <flowRoot
       style="font-style:normal;font-weight:normal;font-size:40px;line-height:1000%;font-family:sans-serif;letter-spacing:0px;word-spacing:0px;fill:#000000;fill-opacity:1;stroke:none;stroke-width:1px;stroke-linecap:butt;stroke-linejoin:miter;stroke-opacity:1"
       id="flowRoot4171"
       xml:space="preserve"><flowRegion
         id="flowRegion4173"><rect
           y="159.14792"
           x="91.071426"
           height="58.92857"
           width="85.35714"
           id="rect4175" /></flowRegion><flowPara
         id="flowPara4177">ab</flowPara><flowPara
         id="flowPara4179" /></flowRoot>    <g
       id="g4356"
       transform="matrix(1.3081031,0,0,1.308199,-8.1895853,-4.3672922)">
      <g
         id="g7229">
        <path
           inkscape:connector-curvature="0"
           id="path4152-4-7"
           d="m 247.93136,39.347865 0,131.026665"
           style="fill:none;stroke:#000000;stroke-width:0.76443779;stroke-linecap:butt;stroke-linejoin:miter;stroke-miterlimit:4;stroke-dasharray:none;stroke-dashoffset:0;stroke-opacity:1;marker-start:url(#TriangleInM)" />
        <g
           transform="matrix(1.4553627,0,0,1.4553964,13.118977,-4.9533346)"
           id="g6738">
          <path
             style="fill:none;stroke:#000000;stroke-width:0.52524978px;stroke-linecap:butt;stroke-linejoin:miter;stroke-opacity:1;marker-end:url(#marker5960)"
             d="m 160.84192,119.96751 86.90232,0"
             id="path4152-9"
             inkscape:connector-curvature="0" />
          <g
             id="g6715">
            <g
               transform="matrix(1.1331179,0,0,1.1332712,-12.757179,-17.230946)"
               id="g5503">
              <path
                 style="fill:none;stroke:#000000;stroke-width:0.46351239;stroke-linecap:butt;stroke-linejoin:miter;stroke-miterlimit:4;stroke-dasharray:0.23175621, 0.23175621;stroke-dashoffset:0;stroke-opacity:1"
                 d="m 171.17872,75.301996 c 25.00001,0.17857 29.28572,-5.19644 23.8393,-29.64288"
                 id="path4233-6-4-6-54"
                 inkscape:connector-curvature="0"
                 sodipodi:nodetypes="cc" />
              <path
                 style="fill:none;stroke:#000000;stroke-width:0.46351239;stroke-linecap:butt;stroke-linejoin:miter;stroke-miterlimit:4;stroke-dasharray:0.23175621, 0.23175621;stroke-dashoffset:0;stroke-opacity:1"
                 d="m 204.08881,45.513827 c -0.17857,25 5.19644,29.28571 29.64288,23.83929"
                 id="path4233-6-4-6-6-9"
                 inkscape:connector-curvature="0"
                 sodipodi:nodetypes="cc" />
              <path
                 style="fill:none;stroke:#000000;stroke-width:0.46351239;stroke-linecap:butt;stroke-linejoin:miter;stroke-miterlimit:4;stroke-dasharray:0.23175621, 0.23175621;stroke-dashoffset:0;stroke-opacity:1"
                 d="m 201.81323,105.29579 c 0.17857,-25 -5.19644,-29.28571 -29.64289,-23.83929"
                 id="path4233-6-4-6-4-5"
                 inkscape:connector-curvature="0"
                 sodipodi:nodetypes="cc" />
              <path
                 style="fill:none;stroke:#000000;stroke-width:0.46351239;stroke-linecap:butt;stroke-linejoin:miter;stroke-miterlimit:4;stroke-dasharray:0.23175621, 0.23175621;stroke-dashoffset:0;stroke-opacity:1"
                 d="m 234.1401,76.969377 c -25,-0.17857 -29.28571,5.19644 -23.83929,29.642883"
                 id="path4233-6-4-6-5-0"
                 inkscape:connector-curvature="0"
                 sodipodi:nodetypes="cc" />
              <path
                 style="fill:none;stroke:#000000;stroke-width:0.46351239;stroke-linecap:butt;stroke-linejoin:miter;stroke-miterlimit:4;stroke-dasharray:0.23175621, 0.23175621;stroke-dashoffset:0;stroke-opacity:1"
                 d="m 242.81281,81.604691 c -27.68547,-0.1977 -32.43155,5.753132 -26.40008,32.818499"
                 id="path4233-6-4-6-5-0-7"
                 inkscape:connector-curvature="0"
                 sodipodi:nodetypes="cc" />
              <path
                 style="fill:none;stroke:#000000;stroke-width:0.46351239;stroke-linecap:butt;stroke-linejoin:miter;stroke-miterlimit:4;stroke-dasharray:0.23175621, 0.23175621;stroke-dashoffset:0;stroke-opacity:1"
                 d="m 214.87518,33.606005 c -0.1977,27.68547 5.75313,32.43155 32.8185,26.40008"
                 id="path4233-6-4-6-5-0-7-7"
                 inkscape:connector-curvature="0"
                 sodipodi:nodetypes="cc" />
              <path
                 style="fill:none;stroke:#000000;stroke-width:0.46351239;stroke-linecap:butt;stroke-linejoin:miter;stroke-miterlimit:4;stroke-dasharray:0.23175621, 0.23175621;stroke-dashoffset:0;stroke-opacity:1"
                 d="m 158.58896,71.087221 c 27.68547,0.1977 32.43155,-5.75313 26.40008,-32.8185"
                 id="path4233-6-4-6-5-0-7-5"
                 inkscape:connector-curvature="0"
                 sodipodi:nodetypes="cc" />
              <path
                 style="fill:none;stroke:#000000;stroke-width:0.46351239;stroke-linecap:butt;stroke-linejoin:miter;stroke-miterlimit:4;stroke-dasharray:0.23175621, 0.23175621;stroke-dashoffset:0;stroke-opacity:1"
                 d="m 196.07017,114.99907 c 0.1977,-27.685472 -5.75313,-32.431552 -32.8185,-26.400082"
                 id="path4233-6-4-6-5-0-7-6"
                 inkscape:connector-curvature="0"
                 sodipodi:nodetypes="cc" />
            </g>
            <g
               id="g6708">
              <path
                 style="fill:none;stroke:#000000;stroke-width:0.52524972;stroke-linecap:butt;stroke-linejoin:miter;stroke-miterlimit:4;stroke-dasharray:2.10099898, 0.52524974;stroke-dashoffset:0;stroke-opacity:1"
                 d="M 162.17303,119.09892 218.01452,70.155204"
                 id="path5223"
                 inkscape:connector-curvature="0" />
              <path
                 style="fill:none;stroke:#000000;stroke-width:0.52524972;stroke-linecap:butt;stroke-linejoin:miter;stroke-miterlimit:4;stroke-dasharray:2.10099883, 0.52524972;stroke-dashoffset:0;stroke-opacity:1"
                 d="m 218.81253,69.221837 0.40061,49.791293"
                 id="path5263"
                 inkscape:connector-curvature="0" />
              <ellipse
                 style="opacity:1;fill:#0000ff;fill-opacity:1;fill-rule:evenodd;stroke:none;stroke-width:1;stroke-miterlimit:4;stroke-dasharray:4, 4;stroke-dashoffset:0;stroke-opacity:1"
                 id="path4191-5"
                 cx="219.01283"
                 cy="68.875175"
                 rx="3.0351372"
                 ry="3.035548" />
              <ellipse
                 style="opacity:1;fill:#00ff00;fill-opacity:1;fill-rule:evenodd;stroke:none;stroke-width:1;stroke-miterlimit:4;stroke-dasharray:4, 4;stroke-dashoffset:0;stroke-opacity:1"
                 id="path4191-4"
                 cx="219.01283"
                 cy="119.41179"
                 rx="3.0351372"
                 ry="3.035548" />
              <ellipse
                 style="opacity:1;fill:#ff0000;fill-opacity:1;fill-rule:evenodd;stroke:none;stroke-width:1;stroke-miterlimit:4;stroke-dasharray:4, 4;stroke-dashoffset:0;stroke-opacity:1"
                 id="path4191-2-9"
                 cx="161.36285"
                 cy="119.41179"
                 rx="3.0351372"
                 ry="3.035548" />
            </g>
          </g>
        </g>
        <g
           id="g6460"
           transform="matrix(1.4553627,0,0,1.4553964,262.93755,15.846957)">
          <g
             word-spacing="normal"
             letter-spacing="normal"
             font-size-adjust="none"
             font-stretch="normal"
             font-weight="normal"
             font-variant="normal"
             font-style="normal"
             stroke-miterlimit="10.433"
             xml:space="preserve"
             transform="matrix(0.22083674,0,0,-0.22083674,-38.64643,209.86799)"
             id="g6462"
             style="font-style:normal;font-variant:normal;font-weight:normal;font-stretch:normal;letter-spacing:normal;word-spacing:normal;text-anchor:start;fill:none;fill-opacity:1;fill-rule:evenodd;stroke:#000000;stroke-width:0.52524978;stroke-linecap:butt;stroke-linejoin:miter;stroke-miterlimit:10.43299961;stroke-dasharray:none;stroke-dashoffset:0;stroke-opacity:1"><path
               id="path6464"
               d="m 483.92,451.33 -0.8,0.75 c 0,-0.04 -1.89,-2.39 -4.08,-2.39 -1.14,0 -2.39,0.75 -3.23,1.25 -1.35,0.8 -2.25,1.14 -3.1,1.14 -1.89,0 -2.84,-1.09 -5.37,-3.89 l 0.8,-0.75 c 0,0.06 1.89,2.39 4.07,2.39 1.15,0 2.4,-0.73 3.24,-1.23 1.34,-0.8 2.25,-1.16 3.09,-1.16 1.89,0 2.85,1.11 5.38,3.89 z"
               inkscape:connector-curvature="0"
               style="fill:#000000;stroke-width:0" /><path
               id="path6466"
               d="m 486.8,434.54 0.23,0.36 0.23,0.33 0.22,0.31 0.22,0.29 0.22,0.28 0.22,0.25 0.22,0.24 0.22,0.22 0.21,0.2 0.21,0.19 0.21,0.17 0.2,0.16 0.21,0.14 0.2,0.13 0.21,0.12 0.19,0.11 0.2,0.09 0.2,0.09 0.19,0.07 0.2,0.07 0.19,0.06 0.19,0.05 0.18,0.04 0.19,0.03 0.18,0.03 0.19,0.03 0.36,0.04 0.35,0.02 0.35,0.02 c 0.6,0.05 0.64,0.89 0.64,0.96 0,0.39 -0.25,0.59 -0.64,0.59 -1.3,0 -2.75,-0.16 -4.09,-0.16 -1.64,0 -3.35,0.16 -4.94,0.16 -0.3,0 -0.94,0 -0.94,-0.95 0,-0.55 0.46,-0.6 0.8,-0.6 1.34,-0.09 2.3,-0.59 2.3,-1.64 0,-0.75 -0.75,-1.84 -0.75,-1.89 l -15.3,-24.31 -3.39,26.34 c 0,0.85 1.14,1.5 3.44,1.5 0.7,0 1.25,0 1.25,1 0,0.44 -0.41,0.55 -0.71,0.55 -1.98,0 -4.14,-0.16 -6.17,-0.16 -0.9,0 -1.84,0.05 -2.75,0.05 -0.89,0 -1.84,0.11 -2.69,0.11 -0.34,0 -0.93,0 -0.93,-0.95 0,-0.6 0.43,-0.6 1.23,-0.6 2.8,0 2.84,-0.45 3,-1.68 l 3.92,-30.75 c 0.16,-1 0.36,-1.14 1,-1.14 0.8,0 1,0.25 1.41,0.89 z"
               inkscape:connector-curvature="0"
               style="fill:#000000;stroke-width:0" /><path
               id="path6468"
               d="m 525.02,445.17 0.03,0.12 0.03,0.11 0.02,0.11 0.03,0.1 0.03,0.09 0.03,0.1 0.03,0.08 0.04,0.08 0.03,0.08 0.04,0.07 0.04,0.07 0.05,0.06 0.05,0.05 0.06,0.06 0.06,0.05 0.07,0.04 0.07,0.05 0.08,0.03 0.09,0.04 0.1,0.03 0.1,0.03 0.06,0.01 0.06,0.01 0.06,0.01 0.06,0.01 0.07,0.01 0.07,0.01 0.07,0.01 0.07,0.01 0.08,0.01 0.08,0 0.08,0.01 0.09,0 0.09,0.01 0.09,0 0.09,0 0.1,0.01 0.1,0 0.11,0 0.11,0 0.11,0.01 0.11,0 0.12,0 c 0.77,0 1.19,0 1.19,0.76 0,0.14 -0.11,0.49 -0.56,0.49 -1.02,0 -3.55,-0.14 -4.56,-0.14 -0.6,0 -1.82,0 -2.41,0.03 -0.69,0.04 -1.53,0.11 -2.19,0.11 -0.22,0 -0.73,0 -0.73,-0.77 0,-0.48 0.42,-0.48 1.11,-0.48 0.03,0 0.7,0 1.33,-0.08 0.73,-0.06 0.79,-0.14 0.79,-0.49 0,-0.03 0,-0.23 -0.14,-0.76 l -2.04,-8.22 -11.68,0 2.02,8.08 c 0.31,1.18 0.39,1.47 3.06,1.47 0.6,0 1.05,0 1.05,0.76 0,0.14 -0.11,0.49 -0.56,0.49 -1,0 -3.55,-0.14 -4.57,-0.14 -0.59,0 -1.81,0 -2.4,0.03 -0.69,0.04 -1.53,0.11 -2.19,0.11 -0.2,0 -0.73,0 -0.73,-0.77 0,-0.48 0.42,-0.48 1.12,-0.48 0.03,0 0.69,0 1.31,-0.08 0.74,-0.06 0.82,-0.14 0.82,-0.49 0,-0.06 0,-0.23 -0.14,-0.76 l -4.65,-18.5 c -0.28,-1.19 -0.34,-1.47 -3.06,-1.47 -0.59,0 -1.05,0 -1.05,-0.74 0,-0.34 0.24,-0.51 0.57,-0.51 1,0 3.51,0.14 4.51,0.14 0.6,0 1.82,0 2.41,-0.03 0.7,-0.05 1.58,-0.11 2.23,-0.11 0.18,0 0.74,0 0.74,0.73 0,0.52 -0.35,0.52 -1.16,0.52 -0.54,0 -0.69,0 -1.31,0.08 -0.78,0.09 -0.78,0.17 -0.78,0.51 0,0.03 0,0.25 0.14,0.77 l 2.31,9.14 11.67,0 -2.26,-9.03 c -0.28,-1.19 -0.36,-1.47 -3.08,-1.47 -0.58,0 -1.03,0 -1.03,-0.74 0,-0.34 0.23,-0.51 0.54,-0.51 1.02,0 3.52,0.14 4.54,0.14 0.59,0 1.81,0 2.4,-0.03 0.71,-0.05 1.56,-0.11 2.24,-0.11 0.17,0 0.73,0 0.73,0.73 0,0.52 -0.36,0.52 -1.15,0.52 -0.57,0 -0.71,0 -1.33,0.08 -0.77,0.09 -0.77,0.17 -0.77,0.51 0,0.22 0.11,0.57 0.14,0.77 z"
               inkscape:connector-curvature="0"
               style="fill:#000000;stroke-width:0" /><path
               id="path6470"
               d="m 491.73,416.23 -5.22,-0.39 0,-1.25 c 2.33,0 2.61,-0.25 2.61,-1.96 l 0,-17.84 c 0,-1.5 -0.34,-1.5 -2.61,-1.5 l 0,-1.25 c 0.06,0 2.5,0.14 3.91,0.14 1.31,0 2.61,-0.03 3.94,-0.14 l 0,1.25 c -2.27,0 -2.63,0 -2.63,1.5 z"
               inkscape:connector-curvature="0"
               style="fill:#000000;stroke-width:0" /><path
               id="path6472"
               d="m 514.27,399.46 -0.01,0.41 -0.03,0.4 -0.05,0.4 -0.08,0.39 -0.09,0.39 -0.11,0.38 -0.14,0.37 -0.15,0.37 -0.16,0.36 -0.19,0.35 -0.2,0.34 -0.22,0.33 -0.24,0.32 -0.25,0.31 -0.26,0.29 -0.29,0.29 -0.29,0.27 -0.31,0.26 -0.32,0.24 -0.33,0.23 -0.35,0.22 -0.36,0.2 -0.37,0.18 -0.38,0.17 -0.39,0.15 -0.4,0.13 -0.41,0.11 -0.41,0.1 -0.43,0.07 -0.43,0.05 -0.45,0.04 -0.44,0.01 0,-0.99 c 2.06,0 3.53,-0.97 4.29,-2.05 0.97,-1.35 1.08,-3.1 1.08,-4.78 0,-1.67 -0.11,-3.51 -1.12,-4.95 -0.94,-1.31 -2.53,-2.02 -4.25,-2.02 l 0,0 c -1.28,0 -3.18,0.43 -4.32,2.13 -0.93,1.44 -1.04,3.23 -1.04,4.84 0,1.5 0.03,3.57 1.25,5.05 0.87,1.02 2.34,1.78 4.11,1.78 l 0,0.99 c -4.8,0 -8.53,-3.77 -8.53,-8.13 0,-4.33 3.82,-7.76 8.53,-7.76 4.7,0 8.54,3.43 8.54,7.76 z"
               inkscape:connector-curvature="0"
               style="fill:#000000;stroke-width:0" /><path
               id="path6474"
               d="m 530.26,405.95 -0.06,-0.03 -0.05,-0.03 -0.06,-0.03 -0.05,-0.03 -0.05,-0.04 -0.05,-0.03 -0.05,-0.04 -0.04,-0.04 -0.05,-0.04 -0.04,-0.04 -0.04,-0.04 -0.04,-0.04 -0.04,-0.05 -0.03,-0.04 -0.04,-0.05 -0.03,-0.05 -0.03,-0.05 -0.02,-0.05 -0.03,-0.05 -0.03,-0.05 -0.02,-0.06 -0.02,-0.05 -0.02,-0.06 -0.01,-0.06 -0.02,-0.05 -0.01,-0.06 -0.01,-0.06 -0.01,-0.06 -0.01,-0.07 0,-0.06 -0.01,-0.06 0,-0.07 c 0,-0.95 0.66,-1.64 1.64,-1.64 0.94,0 1.67,0.6 1.67,1.71 0,3.11 -4.84,3.11 -5.82,3.11 -5.22,0 -8.46,-4.02 -8.46,-8.02 0,-4.39 3.72,-7.87 8.28,-7.87 5.21,0 6.43,4.1 6.43,4.53 0,0.4 -0.46,0.4 -0.6,0.4 -0.45,0 -0.48,-0.09 -0.67,-0.59 -0.76,-2.16 -2.61,-3.24 -4.73,-3.24 -2.41,0 -5.53,1.79 -5.53,6.8 0,4.42 2.15,6.86 5.39,6.86 0.45,0 2.12,0 3.37,-0.51 z"
               inkscape:connector-curvature="0"
               style="fill:#000000;stroke-width:0" /></g>        </g>
        <g
           id="g6960"
           transform="matrix(0,-1.4553964,1.4553627,0,63.355607,234.8488)">
          <g
             word-spacing="normal"
             letter-spacing="normal"
             font-size-adjust="none"
             font-stretch="normal"
             font-weight="normal"
             font-variant="normal"
             font-style="normal"
             stroke-miterlimit="10.433"
             xml:space="preserve"
             transform="matrix(0.22083674,0,0,-0.22083674,-38.64643,209.86799)"
             id="g6962"
             style="font-style:normal;font-variant:normal;font-weight:normal;font-stretch:normal;letter-spacing:normal;word-spacing:normal;text-anchor:start;fill:none;fill-opacity:1;fill-rule:evenodd;stroke:#000000;stroke-width:0.52524978;stroke-linecap:butt;stroke-linejoin:miter;stroke-miterlimit:10.43299961;stroke-dasharray:none;stroke-dashoffset:0;stroke-opacity:1"><polygon
               id="polygon6964"
               points="473.49,453.38 466.82,446.6 467.71,445.71 473.49,450.79 479.23,445.71 480.12,446.6 "
               style="fill:#000000;stroke-width:0" /><path
               id="path6966"
               d="m 474.05,422.43 0.02,0.03 0.02,0.02 0.02,0.02 0.02,0.02 0.02,0.03 0.02,0.02 0.01,0.02 0.02,0.02 0.02,0.02 0.01,0.02 0.03,0.04 0.03,0.03 0.02,0.04 0.03,0.03 0.02,0.03 0.02,0.03 0.01,0.03 0.02,0.03 0.01,0.03 0.02,0.02 0.01,0.02 0.01,0.03 0.01,0.02 0,0.02 0.01,0.02 0.01,0.02 0,0.01 0,0.02 0.01,0.02 0,0.01 0,0.01 0,0.02 0,0.01 0,0.01 0,0.01 0,0.01 0,0.01 c 0,0.25 -0.2,0.5 -0.34,0.7 l -10.22,14.75 11.5,0 c 8.42,0 10.92,-1.79 11.97,-9.67 l 1.23,0 -1.39,11.22 -27.65,0 c -1.19,0 -1.28,0 -1.28,-1.16 l 12.4,-18.03 -11.86,-13.5 c -0.5,-0.54 -0.5,-0.64 -0.5,-0.79 0,-0.55 0.5,-0.55 1.24,-0.55 l 27.65,0 1.39,11.76 -1.23,0 c -0.91,-8.32 -4.3,-9.67 -12.11,-9.67 l -13.75,0 z"
               inkscape:connector-curvature="0"
               style="fill:#000000;stroke-width:0" /><path
               id="path6968"
               d="m 508,394.25 0,0.02 0,0.03 0,0.01 0,0.02 0,0.01 -0.01,0.02 0,0.01 -0.01,0.02 -0.01,0.02 -0.01,0.02 -0.01,0.02 -0.02,0.03 -0.01,0.02 -0.02,0.03 -0.02,0.03 -0.03,0.03 -0.02,0.03 -0.03,0.04 -0.02,0.02 -0.01,0.02 -0.02,0.02 -0.02,0.02 -0.02,0.02 -0.02,0.03 -0.02,0.02 -0.02,0.02 -0.02,0.03 -0.03,0.02 -0.02,0.03 -0.03,0.03 -0.03,0.03 -0.02,0.03 -0.03,0.03 -0.03,0.03 -0.03,0.03 -0.03,0.03 -0.04,0.04 -0.03,0.03 -0.04,0.04 -0.03,0.03 -0.04,0.04 -0.04,0.04 c -6.22,6.28 -7.81,15.69 -7.81,23.31 0,8.67 1.89,17.35 8.01,23.56 0.64,0.61 0.64,0.71 0.64,0.86 0,0.35 -0.18,0.49 -0.48,0.49 -0.5,0 -4.98,-3.38 -7.92,-9.7 -2.55,-5.49 -3.14,-11.02 -3.14,-15.21 0,-3.89 0.54,-9.9 3.28,-15.54 2.98,-6.13 7.28,-9.36 7.78,-9.36 0.3,0 0.48,0.14 0.48,0.5 z"
               inkscape:connector-curvature="0"
               style="fill:#000000;stroke-width:0" /><path
               id="path6970"
               d="m 540.98,424.73 -0.01,0.21 0,0.2 -0.02,0.2 -0.01,0.19 -0.03,0.18 -0.02,0.18 -0.03,0.17 -0.04,0.16 -0.04,0.16 -0.04,0.16 -0.05,0.14 -0.05,0.14 -0.06,0.13 -0.06,0.13 -0.06,0.12 -0.07,0.12 -0.06,0.1 -0.08,0.1 -0.07,0.1 -0.08,0.09 -0.08,0.08 -0.08,0.07 -0.09,0.07 -0.09,0.06 -0.09,0.05 -0.09,0.05 -0.09,0.04 -0.1,0.03 -0.1,0.02 -0.1,0.02 -0.1,0.01 -0.1,0 c -1.29,0 -2.64,-1.18 -2.64,-2.34 0,-0.48 0.24,-1.03 0.74,-1.48 0.86,-0.75 1.75,-2.1 1.75,-4.19 0,-2 -0.96,-4.83 -2.49,-7.13 -1.5,-2.14 -3.34,-3.82 -5.69,-3.82 -2.84,0 -4.39,1.78 -4.82,4.46 0.54,1.3 1.68,4.49 1.68,5.9 0,0.59 -0.25,1.09 -0.89,1.09 -0.4,0 -0.95,-0.11 -1.34,-0.84 -0.55,-1 -1.16,-4.24 -1.16,-6.04 -1.64,-2.34 -3.62,-4.57 -6.76,-4.57 -3.3,0 -4.35,2.93 -4.35,5.71 0,6.24 5.1,11.47 5.1,12.11 0,0.55 -0.41,0.96 -0.96,0.96 -0.65,0 -1,-0.66 -1.29,-1.11 -2.55,-3.69 -4.44,-9.61 -4.44,-14.14 0,-3.44 1.16,-7.13 5.23,-7.13 3.54,0 5.88,2.49 7.68,5.24 0.45,-2.89 2.39,-5.24 5.48,-5.24 3.89,0 6.28,3.03 8.06,6.78 1.21,2.44 3.1,9.21 3.1,12.3 z"
               inkscape:connector-curvature="0"
               style="fill:#000000;stroke-width:0" /><path
               id="path6972"
               d="m 557.98,418.65 0,0.37 0,0.39 -0.01,0.39 -0.01,0.41 -0.04,0.84 -0.06,0.88 -0.09,0.92 -0.1,0.95 -0.14,0.97 -0.16,1.01 -0.2,1.02 -0.23,1.03 -0.26,1.05 -0.31,1.06 -0.35,1.07 -0.39,1.07 -0.21,0.53 -0.23,0.53 -0.24,0.53 -0.25,0.53 c -2.98,6.12 -7.26,9.36 -7.76,9.36 -0.3,0 -0.5,-0.19 -0.5,-0.49 0,-0.15 0,-0.25 0.94,-1.15 4.89,-4.92 7.73,-12.85 7.73,-23.27 0,-8.51 -1.84,-17.28 -8.03,-23.56 -0.64,-0.59 -0.64,-0.7 -0.64,-0.84 0,-0.3 0.2,-0.5 0.5,-0.5 0.5,0 4.97,3.39 7.92,9.71 2.53,5.47 3.12,11 3.12,15.19 z"
               inkscape:connector-curvature="0"
               style="fill:#000000;stroke-width:0" /><path
               id="path6974"
               d="m 607.02,417.65 0.16,0 0.16,0 0.15,0.01 0.08,0 0.08,0.01 0.07,0 0.08,0.01 0.07,0.01 0.07,0.01 0.07,0.02 0.07,0.02 0.07,0.02 0.06,0.02 0.06,0.02 0.06,0.03 0.06,0.03 0.05,0.04 0.05,0.03 0.04,0.05 0.05,0.04 0.04,0.05 0.01,0.03 0.02,0.03 0.02,0.03 0.01,0.03 0.01,0.03 0.02,0.03 0.01,0.04 0.01,0.03 0.01,0.04 0.01,0.04 0,0.04 0.01,0.04 0,0.04 0.01,0.04 0,0.05 0,0.04 c 0,1 -0.91,1 -1.75,1 l -26.95,0 c -0.85,0 -1.74,0 -1.74,-1 0,-1 0.89,-1 1.74,-1 z"
               inkscape:connector-curvature="0"
               style="fill:#000000;stroke-width:0" /><path
               id="path6976"
               d="m 652.28,451.33 -0.8,0.75 c 0,-0.04 -1.89,-2.39 -4.08,-2.39 -1.14,0 -2.39,0.75 -3.23,1.25 -1.35,0.8 -2.25,1.14 -3.1,1.14 -1.89,0 -2.84,-1.09 -5.37,-3.89 l 0.8,-0.75 c 0,0.06 1.89,2.39 4.07,2.39 1.15,0 2.4,-0.73 3.24,-1.23 1.34,-0.8 2.25,-1.16 3.09,-1.16 1.89,0 2.85,1.11 5.38,3.89 z"
               inkscape:connector-curvature="0"
               style="fill:#000000;stroke-width:0" /><path
               id="path6978"
               d="m 655.28,434.54 0.23,0.36 0.23,0.33 0.22,0.31 0.22,0.29 0.22,0.28 0.22,0.25 0.22,0.24 0.22,0.22 0.21,0.2 0.21,0.19 0.21,0.17 0.2,0.16 0.21,0.14 0.2,0.13 0.21,0.12 0.19,0.11 0.2,0.09 0.2,0.09 0.19,0.07 0.2,0.07 0.19,0.06 0.19,0.05 0.18,0.04 0.19,0.03 0.18,0.03 0.19,0.03 0.36,0.04 0.35,0.02 0.35,0.02 c 0.6,0.05 0.64,0.89 0.64,0.96 0,0.39 -0.25,0.59 -0.64,0.59 -1.29,0 -2.75,-0.16 -4.09,-0.16 -1.64,0 -3.35,0.16 -4.94,0.16 -0.3,0 -0.94,0 -0.94,-0.95 0,-0.55 0.46,-0.6 0.8,-0.6 1.34,-0.09 2.3,-0.59 2.3,-1.64 0,-0.75 -0.75,-1.84 -0.75,-1.89 l -15.3,-24.31 -3.39,26.34 c 0,0.85 1.14,1.5 3.44,1.5 0.7,0 1.25,0 1.25,1 0,0.44 -0.41,0.55 -0.71,0.55 -1.98,0 -4.14,-0.16 -6.17,-0.16 -0.9,0 -1.84,0.05 -2.75,0.05 -0.89,0 -1.84,0.11 -2.69,0.11 -0.34,0 -0.93,0 -0.93,-0.95 0,-0.6 0.43,-0.6 1.23,-0.6 2.8,0 2.85,-0.45 3,-1.68 l 3.92,-30.75 c 0.16,-1 0.36,-1.14 1,-1.14 0.8,0 1,0.25 1.41,0.89 z"
               inkscape:connector-curvature="0"
               style="fill:#000000;stroke-width:0" /><path
               id="path6980"
               d="m 693.38,445.17 0.03,0.12 0.02,0.11 0.03,0.11 0.03,0.1 0.03,0.09 0.03,0.1 0.03,0.08 0.03,0.08 0.04,0.08 0.04,0.07 0.04,0.07 0.05,0.06 0.05,0.05 0.06,0.06 0.06,0.05 0.07,0.04 0.07,0.05 0.08,0.03 0.09,0.04 0.1,0.03 0.1,0.03 0.06,0.01 0.06,0.01 0.06,0.01 0.06,0.01 0.07,0.01 0.07,0.01 0.07,0.01 0.07,0.01 0.08,0.01 0.08,0 0.08,0.01 0.09,0 0.09,0.01 0.09,0 0.09,0 0.1,0.01 0.1,0 0.11,0 0.11,0 0.11,0.01 0.11,0 0.12,0 c 0.77,0 1.19,0 1.19,0.76 0,0.14 -0.11,0.49 -0.56,0.49 -1.02,0 -3.55,-0.14 -4.56,-0.14 -0.6,0 -1.82,0 -2.41,0.03 -0.69,0.04 -1.53,0.11 -2.19,0.11 -0.22,0 -0.73,0 -0.73,-0.77 0,-0.48 0.42,-0.48 1.11,-0.48 0.03,0 0.7,0 1.33,-0.08 0.73,-0.06 0.79,-0.14 0.79,-0.49 0,-0.03 0,-0.23 -0.14,-0.76 l -2.05,-8.22 -11.67,0 2.02,8.08 c 0.31,1.18 0.39,1.47 3.06,1.47 0.59,0 1.05,0 1.05,0.76 0,0.14 -0.11,0.49 -0.56,0.49 -1,0 -3.55,-0.14 -4.57,-0.14 -0.59,0 -1.81,0 -2.4,0.03 -0.69,0.04 -1.53,0.11 -2.19,0.11 -0.2,0 -0.74,0 -0.74,-0.77 0,-0.48 0.43,-0.48 1.13,-0.48 0.03,0 0.69,0 1.31,-0.08 0.74,-0.06 0.82,-0.14 0.82,-0.49 0,-0.06 0,-0.23 -0.15,-0.76 l -4.64,-18.5 c -0.28,-1.19 -0.34,-1.47 -3.06,-1.47 -0.59,0 -1.05,0 -1.05,-0.74 0,-0.34 0.24,-0.51 0.57,-0.51 1,0 3.51,0.14 4.51,0.14 0.6,0 1.82,0 2.41,-0.03 0.7,-0.05 1.58,-0.11 2.23,-0.11 0.18,0 0.74,0 0.74,0.73 0,0.52 -0.35,0.52 -1.16,0.52 -0.55,0 -0.69,0 -1.31,0.08 -0.78,0.09 -0.78,0.17 -0.78,0.51 0,0.03 0,0.25 0.14,0.77 l 2.31,9.14 11.67,0 -2.26,-9.03 c -0.28,-1.19 -0.36,-1.47 -3.08,-1.47 -0.58,0 -1.03,0 -1.03,-0.74 0,-0.34 0.23,-0.51 0.54,-0.51 1.02,0 3.52,0.14 4.54,0.14 0.59,0 1.81,0 2.4,-0.03 0.7,-0.05 1.56,-0.11 2.24,-0.11 0.17,0 0.73,0 0.73,0.73 0,0.52 -0.36,0.52 -1.16,0.52 -0.56,0 -0.7,0 -1.32,0.08 -0.77,0.09 -0.77,0.17 -0.77,0.51 0,0.22 0.11,0.57 0.14,0.77 z"
               inkscape:connector-curvature="0"
               style="fill:#000000;stroke-width:0" /><path
               id="path6982"
               d="m 660.21,416.23 -5.22,-0.39 0,-1.25 c 2.33,0 2.61,-0.25 2.61,-1.96 l 0,-17.84 c 0,-1.5 -0.34,-1.5 -2.61,-1.5 l 0,-1.25 c 0.06,0 2.5,0.14 3.91,0.14 1.31,0 2.61,-0.03 3.94,-0.14 l 0,1.25 c -2.27,0 -2.63,0 -2.63,1.5 z"
               inkscape:connector-curvature="0"
               style="fill:#000000;stroke-width:0" /><path
               id="path6984"
               d="m 682.75,399.46 -0.01,0.41 -0.03,0.4 -0.05,0.4 -0.08,0.39 -0.09,0.39 -0.11,0.38 -0.13,0.37 -0.15,0.37 -0.17,0.36 -0.19,0.35 -0.2,0.34 -0.22,0.33 -0.24,0.32 -0.25,0.31 -0.26,0.29 -0.28,0.29 -0.3,0.27 -0.31,0.26 -0.32,0.24 -0.33,0.23 -0.35,0.22 -0.36,0.2 -0.37,0.18 -0.38,0.17 -0.39,0.15 -0.4,0.13 -0.41,0.11 -0.41,0.1 -0.43,0.07 -0.43,0.05 -0.45,0.04 -0.44,0.01 0,-0.99 c 2.06,0 3.53,-0.97 4.29,-2.05 0.97,-1.35 1.08,-3.1 1.08,-4.78 0,-1.67 -0.11,-3.51 -1.12,-4.95 -0.94,-1.31 -2.53,-2.02 -4.25,-2.02 l 0,0 c -1.28,0 -3.18,0.43 -4.31,2.13 -0.94,1.44 -1.05,3.23 -1.05,4.84 0,1.5 0.03,3.57 1.25,5.05 0.87,1.02 2.34,1.78 4.11,1.78 l 0,0.99 c -4.8,0 -8.53,-3.77 -8.53,-8.13 0,-4.33 3.82,-7.76 8.53,-7.76 4.7,0 8.54,3.43 8.54,7.76 z"
               inkscape:connector-curvature="0"
               style="fill:#000000;stroke-width:0" /><path
               id="path6986"
               d="m 698.74,405.95 -0.06,-0.03 -0.05,-0.03 -0.06,-0.03 -0.05,-0.03 -0.05,-0.04 -0.05,-0.03 -0.05,-0.04 -0.04,-0.04 -0.05,-0.04 -0.04,-0.04 -0.04,-0.04 -0.04,-0.04 -0.04,-0.05 -0.03,-0.04 -0.04,-0.05 -0.03,-0.05 -0.03,-0.05 -0.02,-0.05 -0.03,-0.05 -0.03,-0.05 -0.02,-0.06 -0.02,-0.05 -0.02,-0.06 -0.01,-0.06 -0.02,-0.05 -0.01,-0.06 -0.01,-0.06 -0.01,-0.06 -0.01,-0.07 0,-0.06 -0.01,-0.06 0,-0.07 c 0,-0.95 0.66,-1.64 1.64,-1.64 0.94,0 1.68,0.6 1.68,1.71 0,3.11 -4.85,3.11 -5.83,3.11 -5.22,0 -8.46,-4.02 -8.46,-8.02 0,-4.39 3.72,-7.87 8.29,-7.87 5.2,0 6.42,4.1 6.42,4.53 0,0.4 -0.46,0.4 -0.6,0.4 -0.45,0 -0.48,-0.09 -0.67,-0.59 -0.76,-2.16 -2.61,-3.24 -4.73,-3.24 -2.41,0 -5.53,1.79 -5.53,6.8 0,4.42 2.15,6.86 5.39,6.86 0.45,0 2.12,0 3.37,-0.51 z"
               inkscape:connector-curvature="0"
               style="fill:#000000;stroke-width:0" /></g>        </g>
        <g
           id="g4974"
           transform="translate(235.82011,16.970563)">
          <g
             word-spacing="normal"
             letter-spacing="normal"
             font-size-adjust="none"
             font-stretch="normal"
             font-weight="normal"
             font-variant="normal"
             font-style="normal"
             stroke-miterlimit="10.433"
             xml:space="preserve"
             transform="matrix(0.28559579,0,0,-0.28559579,-49.979264,289.20463)"
             id="g4976"
             style="font-style:normal;font-variant:normal;font-weight:normal;font-stretch:normal;letter-spacing:normal;word-spacing:normal;text-anchor:start;fill:none;fill-opacity:1;fill-rule:evenodd;stroke:#000000;stroke-width:0.76443774;stroke-linecap:butt;stroke-linejoin:miter;stroke-miterlimit:10.43299961;stroke-dasharray:none;stroke-dashoffset:0;stroke-opacity:1"><path
               id="path4978"
               d="m 483.92,451.33 -0.8,0.75 c 0,-0.04 -1.89,-2.39 -4.08,-2.39 -1.14,0 -2.39,0.75 -3.23,1.25 -1.35,0.8 -2.25,1.14 -3.1,1.14 -1.89,0 -2.84,-1.09 -5.37,-3.89 l 0.8,-0.75 c 0,0.06 1.89,2.39 4.07,2.39 1.15,0 2.4,-0.73 3.24,-1.23 1.34,-0.8 2.25,-1.16 3.09,-1.16 1.89,0 2.85,1.11 5.38,3.89 z"
               inkscape:connector-curvature="0"
               style="fill:#000000;stroke-width:0" /><path
               id="path4980"
               d="m 486.8,434.54 0.23,0.36 0.23,0.33 0.22,0.31 0.22,0.29 0.22,0.28 0.22,0.25 0.22,0.24 0.22,0.22 0.21,0.2 0.21,0.19 0.21,0.17 0.2,0.16 0.21,0.14 0.2,0.13 0.21,0.12 0.19,0.11 0.2,0.09 0.2,0.09 0.19,0.07 0.2,0.07 0.19,0.06 0.19,0.05 0.18,0.04 0.19,0.03 0.18,0.03 0.19,0.03 0.36,0.04 0.35,0.02 0.35,0.02 c 0.6,0.05 0.64,0.89 0.64,0.96 0,0.39 -0.25,0.59 -0.64,0.59 -1.3,0 -2.75,-0.16 -4.09,-0.16 -1.64,0 -3.35,0.16 -4.94,0.16 -0.3,0 -0.94,0 -0.94,-0.95 0,-0.55 0.46,-0.6 0.8,-0.6 1.34,-0.09 2.3,-0.59 2.3,-1.64 0,-0.75 -0.75,-1.84 -0.75,-1.89 l -15.3,-24.31 -3.39,26.34 c 0,0.85 1.14,1.5 3.44,1.5 0.7,0 1.25,0 1.25,1 0,0.44 -0.41,0.55 -0.71,0.55 -1.98,0 -4.14,-0.16 -6.17,-0.16 -0.9,0 -1.84,0.05 -2.75,0.05 -0.89,0 -1.84,0.11 -2.69,0.11 -0.34,0 -0.93,0 -0.93,-0.95 0,-0.6 0.43,-0.6 1.23,-0.6 2.8,0 2.84,-0.45 3,-1.68 l 3.92,-30.75 c 0.16,-1 0.36,-1.14 1,-1.14 0.8,0 1,0.25 1.41,0.89 z"
               inkscape:connector-curvature="0"
               style="fill:#000000;stroke-width:0" /><path
               id="path4982"
               d="m 514.16,437.5 -0.01,0.41 -0.04,0.4 -0.05,0.4 -0.07,0.39 -0.1,0.39 -0.11,0.38 -0.13,0.37 -0.15,0.37 -0.17,0.36 -0.19,0.35 -0.2,0.34 -0.22,0.33 -0.23,0.32 -0.26,0.3 -0.26,0.3 -0.28,0.29 -0.3,0.27 -0.31,0.26 -0.32,0.24 -0.33,0.23 -0.35,0.22 -0.36,0.2 -0.37,0.18 -0.38,0.17 -0.39,0.15 -0.39,0.13 -0.41,0.11 -0.42,0.09 -0.43,0.08 -0.43,0.05 -0.44,0.03 -0.45,0.01 0,-0.98 c 2.06,0 3.53,-0.97 4.3,-2.05 0.97,-1.36 1.07,-3.11 1.07,-4.78 0,-1.67 -0.1,-3.51 -1.12,-4.95 -0.94,-1.31 -2.53,-2.02 -4.25,-2.02 l 0,0 c -1.28,0 -3.17,0.43 -4.31,2.13 -0.94,1.44 -1.05,3.23 -1.05,4.84 0,1.5 0.03,3.57 1.25,5.05 0.88,1.02 2.34,1.78 4.11,1.78 l 0,0.98 c -4.8,0 -8.53,-3.76 -8.53,-8.12 0,-4.33 3.83,-7.77 8.53,-7.77 4.7,0 8.55,3.44 8.55,7.77 z"
               inkscape:connector-curvature="0"
               style="fill:#000000;stroke-width:0" /><path
               id="path4984"
               d="m 525.2,424.58 -0.1,0 -0.1,0 -0.1,0 -0.1,0 -0.09,0 -0.09,0 -0.09,0 -0.09,0 -0.08,0 -0.08,0 -0.08,0.01 -0.08,0 -0.07,0 -0.07,0 -0.07,0.01 -0.07,0 -0.06,0.01 -0.07,0 -0.12,0.01 -0.11,0.02 -0.1,0.02 -0.09,0.02 -0.09,0.02 -0.08,0.03 -0.07,0.04 -0.07,0.03 -0.06,0.04 -0.05,0.05 -0.05,0.05 -0.04,0.06 -0.04,0.07 -0.03,0.06 -0.03,0.08 -0.02,0.08 -0.02,0.09 -0.01,0.1 -0.02,0.1 -0.01,0.11 0,0.12 0,0.13 -0.01,0.14 0,5.67 c 0.18,-0.17 1.82,-2.02 4.74,-2.02 l -0.21,0.97 c -3.07,0 -4.43,2.69 -4.53,2.89 l 0,8.1 c 1.05,1.73 3.07,2.64 4.91,2.64 2.92,0 5.19,-3.06 5.19,-6.72 0,-3.99 -2.61,-6.91 -5.57,-6.91 l 0.21,-0.97 c 4.59,0 8.53,3.44 8.53,7.88 0,4.28 -3.55,7.83 -7.97,7.83 -1.98,0 -4.01,-0.72 -5.44,-2.13 l 0,2.13 -5.23,-0.38 0,-1.25 c 2.44,0 2.62,-0.19 2.62,-1.64 l 0,-16.09 c 0,-1.5 -0.36,-1.5 -2.62,-1.5 l 0,-1.27 c 0.08,0 2.51,0.14 3.97,0.14 1.29,0 3.7,-0.09 4.01,-0.14 z"
               inkscape:connector-curvature="0"
               style="fill:#000000;stroke-width:0" /><path
               id="path4986"
               d="m 544.47,443.84 5.44,0 0,1.25 -5.44,0 0,6.41 -1.19,0 c -0.03,-3.12 -1.45,-6.58 -4.79,-6.69 l 0,-0.97 3.23,0 0,-9.4 c 0,-3.91 2.93,-4.71 4.88,-4.71 2.34,0 3.93,1.99 3.93,4.74 l 0,1.92 -1.18,0 0,-1.89 c 0,-2.36 -1.11,-3.66 -2.47,-3.66 -2.41,0 -2.41,2.93 -2.41,3.57 z"
               inkscape:connector-curvature="0"
               style="fill:#000000;stroke-width:0" /><path
               id="path4988"
               d="m 491.73,415.39 -5.22,-0.39 0,-1.25 c 2.33,0 2.61,-0.25 2.61,-1.96 l 0,-17.84 c 0,-1.5 -0.34,-1.5 -2.61,-1.5 l 0,-1.25 c 0.06,0 2.5,0.14 3.91,0.14 1.31,0 2.61,-0.03 3.94,-0.14 l 0,1.25 c -2.27,0 -2.63,0 -2.63,1.5 z"
               inkscape:connector-curvature="0"
               style="fill:#000000;stroke-width:0" /><path
               id="path4990"
               d="m 514.27,398.62 -0.01,0.41 -0.03,0.4 -0.05,0.4 -0.08,0.39 -0.09,0.39 -0.11,0.38 -0.14,0.37 -0.15,0.37 -0.16,0.36 -0.19,0.35 -0.2,0.34 -0.22,0.33 -0.24,0.32 -0.25,0.31 -0.26,0.29 -0.29,0.29 -0.29,0.27 -0.31,0.26 -0.32,0.24 -0.33,0.23 -0.35,0.22 -0.36,0.2 -0.37,0.18 -0.38,0.17 -0.39,0.15 -0.4,0.13 -0.41,0.11 -0.41,0.1 -0.43,0.07 -0.43,0.05 -0.45,0.04 -0.44,0.01 0,-0.99 c 2.06,0 3.53,-0.97 4.29,-2.05 0.97,-1.35 1.08,-3.1 1.08,-4.78 0,-1.67 -0.11,-3.51 -1.12,-4.95 -0.94,-1.31 -2.53,-2.02 -4.25,-2.02 l 0,0 c -1.28,0 -3.18,0.43 -4.32,2.13 -0.93,1.44 -1.04,3.23 -1.04,4.84 0,1.5 0.03,3.57 1.25,5.05 0.87,1.02 2.34,1.78 4.11,1.78 l 0,0.99 c -4.8,0 -8.53,-3.77 -8.53,-8.13 0,-4.33 3.82,-7.76 8.53,-7.76 4.7,0 8.54,3.43 8.54,7.76 z"
               inkscape:connector-curvature="0"
               style="fill:#000000;stroke-width:0" /><path
               id="path4992"
               d="m 530.26,405.11 -0.06,-0.03 -0.05,-0.03 -0.06,-0.03 -0.05,-0.03 -0.05,-0.04 -0.05,-0.03 -0.05,-0.04 -0.04,-0.04 -0.05,-0.04 -0.04,-0.04 -0.04,-0.04 -0.04,-0.04 -0.04,-0.05 -0.03,-0.04 -0.04,-0.05 -0.03,-0.05 -0.03,-0.05 -0.02,-0.05 -0.03,-0.05 -0.03,-0.05 -0.02,-0.06 -0.02,-0.05 -0.02,-0.06 -0.01,-0.06 -0.02,-0.05 -0.01,-0.06 -0.01,-0.06 -0.01,-0.06 -0.01,-0.07 0,-0.06 -0.01,-0.06 0,-0.07 c 0,-0.95 0.66,-1.64 1.64,-1.64 0.94,0 1.67,0.6 1.67,1.71 0,3.11 -4.84,3.11 -5.82,3.11 -5.22,0 -8.46,-4.02 -8.46,-8.02 0,-4.39 3.72,-7.87 8.28,-7.87 5.21,0 6.43,4.1 6.43,4.53 0,0.4 -0.46,0.4 -0.6,0.4 -0.45,0 -0.48,-0.09 -0.67,-0.59 -0.76,-2.16 -2.61,-3.24 -4.73,-3.24 -2.41,0 -5.53,1.79 -5.53,6.8 0,4.42 2.15,6.86 5.39,6.86 0.45,0 2.12,0 3.37,-0.51 z"
               inkscape:connector-curvature="0"
               style="fill:#000000;stroke-width:0" /></g>        </g>
        <g
           transform="translate(236.17367,-79.19596)"
           id="g5258">
          <g
             style="font-style:normal;font-variant:normal;font-weight:normal;font-stretch:normal;letter-spacing:normal;word-spacing:normal;text-anchor:start;fill:none;fill-opacity:1;fill-rule:evenodd;stroke:#000000;stroke-width:0.76443774;stroke-linecap:butt;stroke-linejoin:miter;stroke-miterlimit:10.43299961;stroke-dasharray:none;stroke-dashoffset:0;stroke-opacity:1"
             id="g5260"
             transform="matrix(0.28559579,0,0,-0.28559579,-49.979264,289.20463)"
             xml:space="preserve"
             stroke-miterlimit="10.433"
             font-style="normal"
             font-variant="normal"
             font-weight="normal"
             font-stretch="normal"
             font-size-adjust="none"
             letter-spacing="normal"
             word-spacing="normal"><path
               style="fill:#000000;stroke-width:0"
               inkscape:connector-curvature="0"
               d="m 483.92,451.33 -0.8,0.75 c 0,-0.04 -1.89,-2.39 -4.08,-2.39 -1.14,0 -2.39,0.75 -3.23,1.25 -1.35,0.8 -2.25,1.14 -3.1,1.14 -1.89,0 -2.84,-1.09 -5.37,-3.89 l 0.8,-0.75 c 0,0.06 1.89,2.39 4.07,2.39 1.15,0 2.4,-0.73 3.24,-1.23 1.34,-0.8 2.25,-1.16 3.09,-1.16 1.89,0 2.85,1.11 5.38,3.89 z"
               id="path5262" /><path
               style="fill:#000000;stroke-width:0"
               inkscape:connector-curvature="0"
               d="m 486.8,434.54 0.23,0.36 0.23,0.33 0.22,0.31 0.22,0.29 0.22,0.28 0.22,0.25 0.22,0.24 0.22,0.22 0.21,0.2 0.21,0.19 0.21,0.17 0.2,0.16 0.21,0.14 0.2,0.13 0.21,0.12 0.19,0.11 0.2,0.09 0.2,0.09 0.19,0.07 0.2,0.07 0.19,0.06 0.19,0.05 0.18,0.04 0.19,0.03 0.18,0.03 0.19,0.03 0.36,0.04 0.35,0.02 0.35,0.02 c 0.6,0.05 0.64,0.89 0.64,0.96 0,0.39 -0.25,0.59 -0.64,0.59 -1.3,0 -2.75,-0.16 -4.09,-0.16 -1.64,0 -3.35,0.16 -4.94,0.16 -0.3,0 -0.94,0 -0.94,-0.95 0,-0.55 0.46,-0.6 0.8,-0.6 1.34,-0.09 2.3,-0.59 2.3,-1.64 0,-0.75 -0.75,-1.84 -0.75,-1.89 l -15.3,-24.31 -3.39,26.34 c 0,0.85 1.14,1.5 3.44,1.5 0.7,0 1.25,0 1.25,1 0,0.44 -0.41,0.55 -0.71,0.55 -1.98,0 -4.14,-0.16 -6.17,-0.16 -0.9,0 -1.84,0.05 -2.75,0.05 -0.89,0 -1.84,0.11 -2.69,0.11 -0.34,0 -0.93,0 -0.93,-0.95 0,-0.6 0.43,-0.6 1.23,-0.6 2.8,0 2.84,-0.45 3,-1.68 l 3.92,-30.75 c 0.16,-1 0.36,-1.14 1,-1.14 0.8,0 1,0.25 1.41,0.89 z"
               id="path5264" /><path
               style="fill:#000000;stroke-width:0"
               inkscape:connector-curvature="0"
               d="m 511.05,432.14 0.06,0 0.07,0 0.06,0 0.06,0 0.06,0 0.05,0 0.05,0.01 0.05,0 0.05,0 0.04,0.01 0.04,0.01 0.04,0.01 0.04,0.01 0.03,0.01 0.03,0.02 0.03,0.01 0.03,0.02 0.03,0.03 0.02,0.02 0.02,0.03 0.02,0.03 0.02,0.03 0.01,0.02 0.01,0.02 0,0.02 0.01,0.02 0.01,0.02 0,0.02 0.01,0.02 0,0.03 0.01,0.02 0,0.03 0.01,0.02 0,0.03 0,0.03 0,0.03 0.01,0.03 0,0.03 0,0.03 0,0.04 0,0.03 0,0.04 c 0,3.06 -1.72,6.83 -6.91,6.83 -4.56,0 -8.04,-3.63 -8.04,-7.93 0,-4.42 3.87,-7.96 8.5,-7.96 4.7,0 6.45,3.76 6.45,4.53 0,0.14 -0.08,0.48 -0.59,0.48 -0.46,0 -0.53,-0.22 -0.63,-0.56 -1.09,-2.81 -3.73,-3.35 -4.98,-3.35 -1.64,0 -3.21,0.74 -4.25,2.07 -1.3,1.62 -1.33,3.75 -1.33,5.11 l 0.03,0.9 c 0.39,4.92 3.52,5.72 4.84,5.72 4.29,0 4.43,-4.84 4.47,-5.72 l -9.31,0 -0.03,-0.9 z"
               id="path5266" /><path
               style="fill:#000000;stroke-width:0"
               inkscape:connector-curvature="0"
               d="m 525.29,432.01 0,0 0,0.01 -0.01,0 0,0 0,0 -0.01,0.01 0,0 0,0 -0.01,0.01 0,0 -0.01,0.01 -0.01,0.01 -0.01,0.01 -0.01,0.02 -0.01,0.01 -0.01,0.01 -0.01,0.02 -0.02,0.01 -0.01,0.01 -0.02,0.03 -0.03,0.03 -0.01,0.02 -0.01,0.01 -0.01,0.01 -0.01,0.02 -0.01,0.01 -0.01,0.01 -0.01,0.01 -0.01,0.01 0,0.01 -0.01,0 0,0.01 0,0 0,0.01 -0.01,0 0,0 0,0.01 0,0 0,0 0,0 0,0.01 c 0,0.1 2.29,2.57 2.61,2.89 1.22,1.36 2.43,2.68 5.2,2.71 l 0,1.25 c -0.98,-0.06 -1.98,-0.14 -2.94,-0.14 -1.04,0 -2.4,0.04 -3.43,0.14 l 0,-1.25 c 0.57,-0.1 0.68,-0.48 0.68,-0.79 0,-0.08 0,-0.6 -0.51,-1.19 l -2.44,-2.75 -2.89,3.3 c -0.36,0.39 -0.39,0.56 -0.39,0.7 0,0.52 0.48,0.73 0.94,0.73 l 0,1.25 c -1.29,-0.1 -2.61,-0.14 -3.91,-0.14 -1.03,0 -2.36,0.04 -3.38,0.14 l 0,-1.25 c 1.61,0 2.52,0 3.43,-1.04 l 4.34,-5.02 c 0.05,-0.03 0.28,-0.31 0.28,-0.34 0,-0.11 -2.61,-2.97 -2.95,-3.36 -1.3,-1.39 -2.49,-2.67 -5.27,-2.75 l 0,-1.25 c 1.05,0.06 1.82,0.14 2.89,0.14 1.05,0 2.44,-0.03 3.49,-0.14 l 0,1.25 c -0.42,0.08 -0.71,0.31 -0.71,0.81 0,0.66 0.4,1.11 0.96,1.7 l 2.44,2.69 3.03,-3.45 c 0.65,-0.74 0.65,-0.81 0.65,-1.02 0,-0.68 -0.79,-0.73 -0.93,-0.73 l 0,-1.25 c 0.31,0.03 2.82,0.14 3.93,0.14 1.11,0 2.24,-0.03 3.35,-0.14 l 0,1.25 c -2.33,0 -2.61,0.22 -3.43,1.12 z"
               id="path5268" /></g>        </g>
        <g
           id="g5546"
           transform="translate(155.56349,14.849243)">
          <g
             word-spacing="normal"
             letter-spacing="normal"
             font-size-adjust="none"
             font-stretch="normal"
             font-weight="normal"
             font-variant="normal"
             font-style="normal"
             stroke-miterlimit="10.433"
             xml:space="preserve"
             transform="matrix(0.28559579,0,0,-0.28559579,-49.979264,289.20463)"
             id="g5548"
             style="font-style:normal;font-variant:normal;font-weight:normal;font-stretch:normal;letter-spacing:normal;word-spacing:normal;text-anchor:start;fill:none;fill-opacity:1;fill-rule:evenodd;stroke:#000000;stroke-width:0.76443774;stroke-linecap:butt;stroke-linejoin:miter;stroke-miterlimit:10.43299961;stroke-dasharray:none;stroke-dashoffset:0;stroke-opacity:1"><path
               id="path5550"
               d="m 483.92,451.33 -0.8,0.75 c 0,-0.04 -1.89,-2.39 -4.08,-2.39 -1.14,0 -2.39,0.75 -3.23,1.25 -1.35,0.8 -2.25,1.14 -3.1,1.14 -1.89,0 -2.84,-1.09 -5.37,-3.89 l 0.8,-0.75 c 0,0.06 1.89,2.39 4.07,2.39 1.15,0 2.4,-0.73 3.24,-1.23 1.34,-0.8 2.25,-1.16 3.09,-1.16 1.89,0 2.85,1.11 5.38,3.89 z"
               inkscape:connector-curvature="0"
               style="fill:#000000;stroke-width:0" /><path
               id="path5552"
               d="m 486.8,434.54 0.23,0.36 0.23,0.33 0.22,0.31 0.22,0.29 0.22,0.28 0.22,0.25 0.22,0.24 0.22,0.22 0.21,0.2 0.21,0.19 0.21,0.17 0.2,0.16 0.21,0.14 0.2,0.13 0.21,0.12 0.19,0.11 0.2,0.09 0.2,0.09 0.19,0.07 0.2,0.07 0.19,0.06 0.19,0.05 0.18,0.04 0.19,0.03 0.18,0.03 0.19,0.03 0.36,0.04 0.35,0.02 0.35,0.02 c 0.6,0.05 0.64,0.89 0.64,0.96 0,0.39 -0.25,0.59 -0.64,0.59 -1.3,0 -2.75,-0.16 -4.09,-0.16 -1.64,0 -3.35,0.16 -4.94,0.16 -0.3,0 -0.94,0 -0.94,-0.95 0,-0.55 0.46,-0.6 0.8,-0.6 1.34,-0.09 2.3,-0.59 2.3,-1.64 0,-0.75 -0.75,-1.84 -0.75,-1.89 l -15.3,-24.31 -3.39,26.34 c 0,0.85 1.14,1.5 3.44,1.5 0.7,0 1.25,0 1.25,1 0,0.44 -0.41,0.55 -0.71,0.55 -1.98,0 -4.14,-0.16 -6.17,-0.16 -0.9,0 -1.84,0.05 -2.75,0.05 -0.89,0 -1.84,0.11 -2.69,0.11 -0.34,0 -0.93,0 -0.93,-0.95 0,-0.6 0.43,-0.6 1.23,-0.6 2.8,0 2.84,-0.45 3,-1.68 l 3.92,-30.75 c 0.16,-1 0.36,-1.14 1,-1.14 0.8,0 1,0.25 1.41,0.89 z"
               inkscape:connector-curvature="0"
               style="fill:#000000;stroke-width:0" /><path
               id="path5554"
               d="m 518.41,433.37 -1.19,0 c -0.39,-3.42 -0.91,-7.92 -7.5,-7.92 l -3.49,0 c -1.62,0 -1.67,0.28 -1.67,1.36 l 0,18.33 c 0,1.15 0,1.61 3.28,1.61 l 1.22,0 0,1.25 c -0.73,-0.04 -5.18,-0.14 -6.09,-0.14 -1.33,0 -5.27,0.14 -5.3,0.14 l 0,-1.25 0.83,0 c 2.69,0 2.77,-0.35 2.77,-1.58 l 0,-18.14 c 0,-1.19 -0.08,-1.58 -2.77,-1.58 l -0.83,0 0,-1.25 19.69,0 z"
               inkscape:connector-curvature="0"
               style="fill:#000000;stroke-width:0" /><path
               id="path5556"
               d="m 522.33,448 0,-1.25 0.85,0 c 2.68,0 2.75,-0.35 2.75,-1.58 l 0,-18.14 c 0,-1.19 -0.07,-1.58 -2.75,-1.58 l -0.85,0 0,-1.25 13.74,0 -0.94,1.25 -4.36,0 c -1.64,0 -1.67,0.28 -1.67,1.36 l 0,18.58 c 0,1.07 0.03,1.36 1.67,1.36 l 4.33,0 c 2.95,0 5.53,-1.22 7.14,-3.29 1.42,-1.87 1.98,-4.53 1.98,-7.56 0,-4.03 -1.01,-6.12 -2.23,-7.59 -1.56,-1.78 -4.08,-2.86 -6.86,-2.86 l 0.94,-1.25 c 6.4,0 11.75,5.16 11.75,11.7 0,6.63 -5.27,12.1 -11.75,12.1 z"
               inkscape:connector-curvature="0"
               style="fill:#000000;stroke-width:0" /><path
               id="path5558"
               d="m 564.88,448.25 -0.02,0.05 -0.02,0.05 -0.02,0.04 -0.01,0.05 -0.02,0.04 -0.02,0.04 -0.02,0.04 -0.02,0.04 -0.01,0.04 -0.02,0.03 -0.02,0.04 -0.02,0.03 -0.03,0.03 -0.02,0.03 -0.02,0.02 -0.03,0.03 -0.02,0.02 -0.03,0.03 -0.03,0.02 -0.03,0.02 -0.03,0.01 -0.04,0.02 -0.03,0.01 -0.04,0.02 -0.04,0.01 -0.04,0.01 -0.05,0 -0.05,0.01 -0.05,0.01 -0.05,0 -0.06,0 -0.06,0 c -0.67,0 -0.76,-0.25 -0.98,-0.79 l -8.05,-20.39 c -0.35,-0.88 -0.94,-2.41 -4.08,-2.41 l 0,-1.25 c 1.19,0.11 2.41,0.14 3.6,0.14 1.38,0 3.96,-0.14 4.18,-0.14 l 0,1.25 c -1.53,0 -2.51,0.7 -2.51,1.67 0,0.28 0.03,0.36 0.17,0.7 l 1.67,4.29 0.5,1.26 4.45,11.31 4.46,-11.31 -8.91,0 -0.5,-1.26 9.91,0 2.01,-5.08 c 0.07,-0.19 0.17,-0.42 0.17,-0.6 0,-0.98 -1.87,-0.98 -2.82,-0.98 l 0,-1.25 c 1.75,0.06 3.98,0.14 5.2,0.14 1.64,0 4.25,-0.11 4.62,-0.14 l 0,1.25 -0.68,0 c -2.35,0 -2.58,0.36 -2.97,1.33 z"
               inkscape:connector-curvature="0"
               style="fill:#000000;stroke-width:0" /></g>        </g>
      </g>
      <g
         id="g7165">
        <path
           inkscape:connector-curvature="0"
           id="path5263-6-8"
           d="m 109.80259,76.100026 40.4073,-14.107743"
           style="fill:none;stroke:#000000;stroke-width:0.76443768;stroke-linecap:butt;stroke-linejoin:miter;stroke-miterlimit:4;stroke-dasharray:3.05775067, 0.76443768;stroke-dashoffset:0;stroke-opacity:1" />
        <g
           transform="matrix(1.6490975,0,0,1.6493588,-29.428723,-26.245378)"
           id="g6221">
          <path
             style="fill:none;stroke:#000000;stroke-width:0.46351239;stroke-linecap:butt;stroke-linejoin:miter;stroke-miterlimit:4;stroke-dasharray:0.23175621, 0.23175621;stroke-dashoffset:0;stroke-opacity:1"
             d="m 88.762146,91.8419 c 0.17857,-25 -5.19644,-29.28571 -29.64289,-23.83929"
             id="path4233-6-4-6-4-5-3"
             inkscape:connector-curvature="0"
             sodipodi:nodetypes="cc" />
          <path
             style="fill:none;stroke:#000000;stroke-width:0.46351239;stroke-linecap:butt;stroke-linejoin:miter;stroke-miterlimit:4;stroke-dasharray:0.23175621, 0.23175621;stroke-dashoffset:0;stroke-opacity:1"
             d="m 83.019086,101.54518 c 0.1977,-27.685472 -5.75313,-32.431552 -32.8185,-26.400082"
             id="path4233-6-4-6-5-0-7-6-1"
             inkscape:connector-curvature="0"
             sodipodi:nodetypes="cc" />
        </g>
        <g
           transform="matrix(1.6490975,0,0,1.6493588,-42.679591,-24.371263)"
           id="g6194">
          <path
             style="fill:none;stroke:#000000;stroke-width:0.46351239;stroke-linecap:butt;stroke-linejoin:miter;stroke-miterlimit:4;stroke-dasharray:0.23175621, 0.23175621;stroke-dashoffset:0;stroke-opacity:1"
             d="m 60.07218,60.433892 c 25.00001,0.17857 29.28572,-5.19644 23.8393,-29.64288"
             id="path4233-6-4-6-54-4"
             inkscape:connector-curvature="0"
             sodipodi:nodetypes="cc" />
          <path
             style="fill:none;stroke:#000000;stroke-width:0.46351239;stroke-linecap:butt;stroke-linejoin:miter;stroke-miterlimit:4;stroke-dasharray:0.23175621, 0.23175621;stroke-dashoffset:0;stroke-opacity:1"
             d="m 47.48242,56.219117 c 27.68547,0.1977 32.43155,-5.75313 26.40008,-32.8185"
             id="path4233-6-4-6-5-0-7-5-9"
             inkscape:connector-curvature="0"
             sodipodi:nodetypes="cc" />
        </g>
        <g
           transform="matrix(1.6490975,0,0,1.6493588,-40.197314,-22.49774)"
           id="g6198">
          <path
             style="fill:none;stroke:#000000;stroke-width:0.46351239;stroke-linecap:butt;stroke-linejoin:miter;stroke-miterlimit:4;stroke-dasharray:0.23175621, 0.23175621;stroke-dashoffset:0;stroke-opacity:1"
             d="m 123.03356,62.101273 c -25,-0.17857 -29.28571,5.19644 -23.83929,29.642883"
             id="path4233-6-4-6-5-0-72"
             inkscape:connector-curvature="0"
             sodipodi:nodetypes="cc" />
          <path
             style="fill:none;stroke:#000000;stroke-width:0.46351239;stroke-linecap:butt;stroke-linejoin:miter;stroke-miterlimit:4;stroke-dasharray:0.23175621, 0.23175621;stroke-dashoffset:0;stroke-opacity:1"
             d="m 131.70627,66.736587 c -27.68547,-0.1977 -32.43155,5.753132 -26.40008,32.818499"
             id="path4233-6-4-6-5-0-7-71"
             inkscape:connector-curvature="0"
             sodipodi:nodetypes="cc" />
        </g>
        <g
           transform="matrix(1.6490975,0,0,1.6493588,-46.44665,-13.786192)"
           id="g6202">
          <path
             style="fill:none;stroke:#000000;stroke-width:0.46351239;stroke-linecap:butt;stroke-linejoin:miter;stroke-miterlimit:4;stroke-dasharray:0.23175621, 0.23175621;stroke-dashoffset:0;stroke-opacity:1"
             d="m 92.98227,30.645723 c -0.17857,25 5.19644,29.28571 29.64288,23.83929"
             id="path4233-6-4-6-6-9-0"
             inkscape:connector-curvature="0"
             sodipodi:nodetypes="cc" />
          <path
             style="fill:none;stroke:#000000;stroke-width:0.46351239;stroke-linecap:butt;stroke-linejoin:miter;stroke-miterlimit:4;stroke-dasharray:0.23175621, 0.23175621;stroke-dashoffset:0;stroke-opacity:1"
             d="m 103.76864,18.737901 c -0.1977,27.68547 5.75313,32.43155 32.8185,26.40008"
             id="path4233-6-4-6-5-0-7-7-2"
             inkscape:connector-curvature="0"
             sodipodi:nodetypes="cc" />
        </g>
        <path
           inkscape:transform-center-y="5.6386384"
           inkscape:transform-center-x="1.3748492"
           inkscape:connector-curvature="0"
           id="path5263-6"
           d="M 108.56498,74.917172 123.69325,62.550501"
           style="fill:none;stroke:#000000;stroke-width:0.76443774;stroke-linecap:butt;stroke-linejoin:miter;stroke-miterlimit:4;stroke-dasharray:3.05775088, 0.76443771;stroke-dashoffset:0;stroke-opacity:1" />
        <path
           inkscape:connector-curvature="0"
           id="path4154"
           d="M 56.88464,174.68266 172.36173,60.249333"
           style="fill:none;stroke:#000000;stroke-width:0.76443774;stroke-linecap:butt;stroke-linejoin:miter;stroke-miterlimit:1;stroke-dasharray:none;stroke-opacity:1;marker-end:url(#TriangleOutM)" />
        <path
           inkscape:connector-curvature="0"
           id="path4154-4"
           d="M 126.48158,85.814187 150.27279,62.245971"
           style="fill:none;stroke:#000000;stroke-width:0.76443774px;stroke-linecap:butt;stroke-linejoin:miter;stroke-opacity:1" />
        <path
           inkscape:connector-curvature="0"
           id="path4152"
           d="m 56.149518,174.55204 120.926922,0"
           style="fill:none;stroke:#000000;stroke-width:0.76443774px;stroke-linecap:butt;stroke-linejoin:miter;stroke-opacity:1;marker-end:url(#marker5914)" />
        <path
           inkscape:connector-curvature="0"
           id="path4152-4"
           d="m 56.980905,44.375119 0,130.972721"
           style="fill:none;stroke:#000000;stroke-width:0.76443774px;stroke-linecap:butt;stroke-linejoin:miter;stroke-opacity:1;marker-start:url(#marker5452)" />
        <path
           inkscape:connector-curvature="0"
           id="path4229"
           d="m 58.129241,85.588128 68.319749,0 0,89.536642"
           style="fill:none;stroke:#000000;stroke-width:0.76443774;stroke-linecap:butt;stroke-linejoin:miter;stroke-miterlimit:4;stroke-dasharray:none;stroke-dashoffset:0;stroke-opacity:1" />
        <path
           inkscape:connector-curvature="0"
           id="path4229-9"
           d="m 81.685826,62.557145 68.319744,0 0,89.536645"
           style="opacity:1;fill:none;stroke:#000000;stroke-width:0.76443774;stroke-linecap:butt;stroke-linejoin:miter;stroke-miterlimit:4;stroke-dasharray:none;stroke-dashoffset:0;stroke-opacity:1" />
        <path
           inkscape:connector-curvature="0"
           id="path4154-4-4"
           d="m 126.36225,173.87816 23.79122,-23.56822"
           style="fill:none;stroke:#000000;stroke-width:0.76443774px;stroke-linecap:butt;stroke-linejoin:miter;stroke-opacity:1" />
        <path
           inkscape:connector-curvature="0"
           id="path4154-4-3"
           d="M 57.331554,86.144446 81.122771,62.576231"
           style="fill:none;stroke:#000000;stroke-width:0.76443774px;stroke-linecap:butt;stroke-linejoin:miter;stroke-opacity:1" />
        <ellipse
           ry="4.4179254"
           rx="4.4172254"
           cy="61.920361"
           cx="149.62505"
           id="path4191-2"
           style="opacity:1;fill:#ff0000;fill-opacity:1;fill-rule:evenodd;stroke:none;stroke-width:1;stroke-miterlimit:4;stroke-dasharray:4, 4;stroke-dashoffset:0;stroke-opacity:1" />
        <path
           sodipodi:nodetypes="cc"
           inkscape:connector-curvature="0"
           id="path4229-9-0"
           d="m 80.86337,61.727723 0,89.536647"
           style="opacity:0.5;fill:none;stroke:#000000;stroke-width:0.76443774;stroke-linecap:butt;stroke-linejoin:miter;stroke-miterlimit:4;stroke-dasharray:none;stroke-dashoffset:0;stroke-opacity:1" />
        <ellipse
           ry="4.4179254"
           rx="4.4172254"
           cy="65.161697"
           cx="120.11333"
           id="path4191-4-3"
           style="opacity:1;fill:#00ff00;fill-opacity:1;fill-rule:evenodd;stroke:none;stroke-width:1;stroke-miterlimit:4;stroke-dasharray:4, 4;stroke-dashoffset:0;stroke-opacity:1" />
        <ellipse
           ry="4.4179254"
           rx="4.4172254"
           cy="77.001305"
           cx="106.61744"
           id="path4191"
           style="opacity:1;fill:#0000ff;fill-opacity:1;fill-rule:evenodd;stroke:none;stroke-width:1;stroke-miterlimit:4;stroke-dasharray:4, 4;stroke-dashoffset:0;stroke-opacity:1" />
        <g
           id="g5655"
           transform="matrix(1.4553627,0,0,1.4553964,67.232252,17.045798)">
          <g
             word-spacing="normal"
             letter-spacing="normal"
             font-size-adjust="none"
             font-stretch="normal"
             font-weight="normal"
             font-variant="normal"
             font-style="normal"
             stroke-miterlimit="10.433"
             xml:space="preserve"
             transform="matrix(0.22083674,0,0,-0.22083674,-38.64643,209.86799)"
             id="content"
             style="font-style:normal;font-variant:normal;font-weight:normal;font-stretch:normal;letter-spacing:normal;word-spacing:normal;text-anchor:start;fill:none;fill-opacity:1;fill-rule:evenodd;stroke:#000000;stroke-width:0.52524978;stroke-linecap:butt;stroke-linejoin:miter;stroke-miterlimit:10.43299961;stroke-dasharray:none;stroke-dashoffset:0;stroke-opacity:1"><path
               id="path5658"
               d="m 457.16,397.57 -0.01,-0.02 0,-0.03 -0.01,-0.03 0,-0.02 -0.01,-0.03 -0.01,-0.02 0,-0.02 -0.01,-0.03 0,-0.02 -0.01,-0.02 0,-0.02 0,-0.02 -0.01,-0.02 0,-0.02 -0.01,-0.04 -0.01,-0.03 0,-0.03 -0.01,-0.03 -0.01,-0.03 0,-0.03 -0.01,-0.02 0,-0.02 0,-0.03 -0.01,-0.02 0,-0.02 0,-0.01 0,-0.02 0,-0.01 -0.01,-0.02 0,-0.01 0,-0.02 0,-0.01 0,-0.01 0,-0.02 0,-0.02 0,-0.02 c 0,-0.74 0.55,-1.35 1.39,-1.35 1.05,0 1.64,0.91 1.75,1.05 0.23,0.45 1.84,7.13 3.19,12.52 0.98,-2 2.58,-3.35 4.92,-3.35 l -0.05,1.1 c -3.48,0 -4.28,3.98 -4.28,4.43 0,0.21 0.25,1.19 0.39,1.85 1.41,5.58 1.91,7.37 3,9.36 2.14,3.64 4.63,4.73 6.17,4.73 1.85,0 3.44,-1.44 3.44,-4.87 0,-2.75 -1.44,-8.33 -2.78,-10.77 -1.66,-3.14 -4.05,-4.73 -5.94,-4.73 l 0,0 0.05,-1.1 c 5.83,0 12.27,7.03 12.27,14.46 0,5.28 -3.3,8.1 -6.94,8.1 -4.83,0 -10.06,-4.98 -11.55,-11.06 z"
               inkscape:connector-curvature="0"
               style="fill:#000000;stroke-width:0" /><path
               id="path5660"
               d="m 488.68,445.7 0,0.09 -0.01,0.1 -0.01,0.09 -0.02,0.1 -0.02,0.09 -0.03,0.09 -0.03,0.09 -0.03,0.09 -0.04,0.08 -0.04,0.09 -0.05,0.08 -0.05,0.08 -0.05,0.08 -0.06,0.08 -0.06,0.07 -0.07,0.07 -0.07,0.07 -0.07,0.06 -0.08,0.07 -0.08,0.05 -0.08,0.06 -0.08,0.05 -0.09,0.04 -0.09,0.05 -0.1,0.03 -0.09,0.04 -0.1,0.03 -0.1,0.02 -0.11,0.02 -0.1,0.01 -0.11,0.01 -0.11,0 c -1.05,0 -1.99,-0.82 -1.99,-1.98 0,-1.25 1.02,-2.02 1.99,-2.02 1.12,0 2.03,0.86 2.03,2.02 z"
               inkscape:connector-curvature="0"
               style="fill:#000000;stroke-width:0" /><path
               id="path5662"
               d="m 483.38,439.18 0,-1.25 c 2.19,0 2.5,-0.22 2.5,-1.92 l 0,-9.06 c 0,-1.5 -0.34,-1.5 -2.61,-1.5 l 0,-1.25 c 0.07,0 2.5,0.14 3.91,0.14 1.22,0 2.47,-0.03 3.69,-0.14 l 0,1.25 c -2.02,0 -2.38,0 -2.38,1.47 l 0,12.64 z"
               inkscape:connector-curvature="0"
               style="fill:#000000;stroke-width:0" /><path
               id="path5664"
               d="m 510.54,434.76 -0.01,0.28 -0.01,0.28 -0.02,0.26 -0.04,0.26 -0.04,0.25 -0.05,0.24 -0.06,0.23 -0.07,0.23 -0.07,0.22 -0.09,0.21 -0.1,0.2 -0.11,0.19 -0.12,0.19 -0.13,0.17 -0.14,0.17 -0.15,0.16 -0.17,0.15 -0.17,0.14 -0.19,0.13 -0.19,0.12 -0.21,0.11 -0.22,0.11 -0.23,0.09 -0.24,0.09 -0.26,0.07 -0.27,0.07 -0.28,0.05 -0.29,0.05 -0.3,0.03 -0.32,0.03 -0.33,0.01 -0.34,0.01 c -2.86,0 -4.71,-1.56 -5.69,-3.38 l -0.03,0 0,3.38 -5.13,-0.38 0,-1.25 c 2.35,0 2.63,-0.25 2.63,-1.95 l 0,-9.03 c 0,-1.5 -0.36,-1.5 -2.63,-1.5 l 0,-1.25 c 0.08,0 2.52,0.14 3.99,0.14 1.28,0 3.68,-0.11 4,-0.14 l 0,1.25 c -2.27,0 -2.61,0 -2.61,1.5 l 0,6.28 c 0,3.66 2.89,5.36 5.19,5.36 2.43,0 2.75,-1.92 2.75,-3.69 l 0,-7.95 c 0,-1.5 -0.35,-1.5 -2.61,-1.5 l 0,-1.25 c 0.07,0 2.51,0.14 3.96,0.14 1.3,0 3.71,-0.11 4.02,-0.14 l 0,1.25 c -2.27,0 -2.62,0 -2.62,1.5 z"
               inkscape:connector-curvature="0"
               style="fill:#000000;stroke-width:0" /></g>        </g>
        <g
           transform="matrix(1.4553627,0,0,1.4553964,-64.114247,-129.22156)"
           id="g5834">
          <g
             style="font-style:normal;font-variant:normal;font-weight:normal;font-stretch:normal;letter-spacing:normal;word-spacing:normal;text-anchor:start;fill:none;fill-opacity:1;fill-rule:evenodd;stroke:#000000;stroke-width:0.52524978;stroke-linecap:butt;stroke-linejoin:miter;stroke-miterlimit:10.43299961;stroke-dasharray:none;stroke-dashoffset:0;stroke-opacity:1"
             id="g5836"
             transform="matrix(0.22083674,0,0,-0.22083674,-38.64643,209.86799)"
             xml:space="preserve"
             stroke-miterlimit="10.433"
             font-style="normal"
             font-variant="normal"
             font-weight="normal"
             font-stretch="normal"
             font-size-adjust="none"
             letter-spacing="normal"
             word-spacing="normal"><path
               style="fill:#000000;stroke-width:0"
               inkscape:connector-curvature="0"
               d="m 457.16,397.57 -0.01,-0.02 0,-0.03 -0.01,-0.03 0,-0.02 -0.01,-0.03 -0.01,-0.02 0,-0.02 -0.01,-0.03 0,-0.02 -0.01,-0.02 0,-0.02 0,-0.02 -0.01,-0.02 0,-0.02 -0.01,-0.04 -0.01,-0.03 0,-0.03 -0.01,-0.03 -0.01,-0.03 0,-0.03 -0.01,-0.02 0,-0.02 0,-0.03 -0.01,-0.02 0,-0.02 0,-0.01 0,-0.02 0,-0.01 -0.01,-0.02 0,-0.01 0,-0.02 0,-0.01 0,-0.01 0,-0.02 0,-0.02 0,-0.02 c 0,-0.74 0.55,-1.35 1.39,-1.35 1.05,0 1.64,0.91 1.75,1.05 0.23,0.45 1.84,7.13 3.19,12.52 0.98,-2 2.58,-3.35 4.92,-3.35 l -0.05,1.1 c -3.48,0 -4.28,3.98 -4.28,4.43 0,0.21 0.25,1.19 0.39,1.85 1.41,5.58 1.91,7.37 3,9.36 2.14,3.64 4.63,4.73 6.17,4.73 1.85,0 3.44,-1.44 3.44,-4.87 0,-2.75 -1.44,-8.33 -2.78,-10.77 -1.66,-3.14 -4.05,-4.73 -5.94,-4.73 l 0,0 0.05,-1.1 c 5.83,0 12.27,7.03 12.27,14.46 0,5.28 -3.3,8.1 -6.94,8.1 -4.83,0 -10.06,-4.98 -11.55,-11.06 z"
               id="path5838" /><path
               style="fill:#000000;stroke-width:0"
               inkscape:connector-curvature="0"
               d="m 499.76,431.62 -0.01,0.41 -0.04,0.4 -0.05,0.4 -0.07,0.39 -0.1,0.39 -0.11,0.38 -0.13,0.37 -0.15,0.37 -0.17,0.36 -0.19,0.35 -0.2,0.34 -0.22,0.33 -0.23,0.32 -0.25,0.31 -0.27,0.29 -0.28,0.29 -0.3,0.27 -0.3,0.26 -0.33,0.24 -0.33,0.23 -0.35,0.22 -0.35,0.2 -0.37,0.18 -0.38,0.17 -0.39,0.15 -0.4,0.13 -0.41,0.11 -0.42,0.1 -0.43,0.07 -0.43,0.05 -0.44,0.04 -0.45,0.01 0,-0.99 c 2.06,0 3.53,-0.97 4.3,-2.05 0.97,-1.35 1.08,-3.1 1.08,-4.78 0,-1.67 -0.11,-3.51 -1.13,-4.95 -0.94,-1.31 -2.53,-2.02 -4.25,-2.02 l 0,0 c -1.28,0 -3.17,0.43 -4.31,2.13 -0.94,1.44 -1.05,3.23 -1.05,4.84 0,1.5 0.03,3.57 1.25,5.05 0.88,1.02 2.35,1.78 4.11,1.78 l 0,0.99 c -4.8,0 -8.53,-3.77 -8.53,-8.13 0,-4.33 3.83,-7.76 8.53,-7.76 4.7,0 8.55,3.43 8.55,7.76 z"
               id="path5840" /><path
               style="fill:#000000;stroke-width:0"
               inkscape:connector-curvature="0"
               d="m 513.7,439.18 0,-1.25 c 2.32,0 2.6,-0.25 2.6,-1.95 l 0,-5.97 c 0,-3.06 -1.98,-5.19 -4.62,-5.19 -3.17,0 -3.31,1.5 -3.31,3.29 l 0,11.45 -5.38,-0.38 0,-1.25 c 2.63,0 2.63,-0.11 2.63,-3.22 l 0,-5.21 c 0,-2.41 0,-5.64 5.81,-5.64 0.77,0 3.31,0 4.98,2.92 l 0.04,0 0,-2.92 5.23,0.34 0,1.25 c -2.34,0 -2.63,0.25 -2.63,1.95 l 0,12.16 z"
               id="path5842" /><path
               style="fill:#000000;stroke-width:0"
               inkscape:connector-curvature="0"
               d="m 530.07,437.96 5.44,0 0,1.25 -5.44,0 0,6.41 -1.18,0 c -0.04,-3.12 -1.46,-6.58 -4.8,-6.69 l 0,-0.97 3.23,0 0,-9.4 c 0,-3.91 2.93,-4.7 4.88,-4.7 2.34,0 3.94,1.98 3.94,4.73 l 0,1.92 -1.19,0 0,-1.89 c 0,-2.36 -1.11,-3.66 -2.47,-3.66 -2.41,0 -2.41,2.93 -2.41,3.57 z"
               id="path5844" /></g>        </g>
        <g
           id="g6026"
           transform="matrix(1.4553627,0,0,1.4553964,86.879652,-105.93521)">
          <g
             word-spacing="normal"
             letter-spacing="normal"
             font-size-adjust="none"
             font-stretch="normal"
             font-weight="normal"
             font-variant="normal"
             font-style="normal"
             stroke-miterlimit="10.433"
             xml:space="preserve"
             transform="matrix(0.22083674,0,0,-0.22083674,-38.64643,209.86799)"
             id="g6028"
             style="font-style:normal;font-variant:normal;font-weight:normal;font-stretch:normal;letter-spacing:normal;word-spacing:normal;text-anchor:start;fill:none;fill-opacity:1;fill-rule:evenodd;stroke:#000000;stroke-width:0.52524978;stroke-linecap:butt;stroke-linejoin:miter;stroke-miterlimit:10.43299961;stroke-dasharray:none;stroke-dashoffset:0;stroke-opacity:1"><path
               id="path6030"
               d="m 483.92,451.33 -0.8,0.75 c 0,-0.04 -1.89,-2.39 -4.08,-2.39 -1.14,0 -2.39,0.75 -3.23,1.25 -1.35,0.8 -2.25,1.14 -3.1,1.14 -1.89,0 -2.84,-1.09 -5.37,-3.89 l 0.8,-0.75 c 0,0.06 1.89,2.39 4.07,2.39 1.15,0 2.4,-0.73 3.24,-1.23 1.34,-0.8 2.25,-1.16 3.09,-1.16 1.89,0 2.85,1.11 5.38,3.89 z"
               inkscape:connector-curvature="0"
               style="fill:#000000;stroke-width:0" /><path
               id="path6032"
               d="m 486.8,434.54 0.23,0.36 0.23,0.33 0.22,0.31 0.22,0.29 0.22,0.28 0.22,0.25 0.22,0.24 0.22,0.22 0.21,0.2 0.21,0.19 0.21,0.17 0.2,0.16 0.21,0.14 0.2,0.13 0.21,0.12 0.19,0.11 0.2,0.09 0.2,0.09 0.19,0.07 0.2,0.07 0.19,0.06 0.19,0.05 0.18,0.04 0.19,0.03 0.18,0.03 0.19,0.03 0.36,0.04 0.35,0.02 0.35,0.02 c 0.6,0.05 0.64,0.89 0.64,0.96 0,0.39 -0.25,0.59 -0.64,0.59 -1.3,0 -2.75,-0.16 -4.09,-0.16 -1.64,0 -3.35,0.16 -4.94,0.16 -0.3,0 -0.94,0 -0.94,-0.95 0,-0.55 0.46,-0.6 0.8,-0.6 1.34,-0.09 2.3,-0.59 2.3,-1.64 0,-0.75 -0.75,-1.84 -0.75,-1.89 l -15.3,-24.31 -3.39,26.34 c 0,0.85 1.14,1.5 3.44,1.5 0.7,0 1.25,0 1.25,1 0,0.44 -0.41,0.55 -0.71,0.55 -1.98,0 -4.14,-0.16 -6.17,-0.16 -0.9,0 -1.84,0.05 -2.75,0.05 -0.89,0 -1.84,0.11 -2.69,0.11 -0.34,0 -0.93,0 -0.93,-0.95 0,-0.6 0.43,-0.6 1.23,-0.6 2.8,0 2.84,-0.45 3,-1.68 l 3.92,-30.75 c 0.16,-1 0.36,-1.14 1,-1.14 0.8,0 1,0.25 1.41,0.89 z"
               inkscape:connector-curvature="0"
               style="fill:#000000;stroke-width:0" /><path
               id="path6034"
               d="m 492.37,406.7 0.1,0 0.1,0 0.12,0 0.12,0 0.14,0.01 0.14,0 0.14,0.01 0.16,0 0.16,0.01 0.17,0.01 0.17,0.01 0.18,0.01 0.19,0.01 0.18,0.02 0.39,0.03 0.4,0.04 0.4,0.05 0.41,0.06 0.4,0.07 0.4,0.08 0.2,0.05 0.2,0.04 0.19,0.05 0.19,0.06 0.18,0.05 0.18,0.06 c 2.58,0.91 3.06,2.58 3.06,3.63 0,1.92 -1.92,3.06 -4.33,3.06 l 0,-0.97 c 1.54,0 2.83,-0.76 2.83,-2.09 0,-3.38 -5.89,-3.38 -7.39,-3.38 l -1.7,0 c 1.42,5.05 5.3,5.47 6.26,5.47 l 0,0.97 c -4.17,0 -9.82,-3.2 -9.82,-9.16 0,-3.51 2.2,-6.54 6.28,-6.54 5.89,0 8.64,3.44 8.64,3.94 0,0.2 -0.31,0.59 -0.6,0.59 -0.2,0 -0.28,-0.08 -0.56,-0.36 -2.72,-3.2 -6.79,-3.2 -7.42,-3.2 -2.09,0 -3.48,1.39 -3.48,4.22 0,0.48 0,1.18 0.42,3.09 z"
               inkscape:connector-curvature="0"
               style="fill:#000000;stroke-width:0" /><path
               id="path6036"
               d="m 517.59,412.53 3.4,0 c 0.71,0 1.16,0 1.16,0.76 0,0.49 -0.45,0.49 -1.08,0.49 l -3.25,0 c 0.81,4.42 1.08,6.03 1.36,7.04 0.17,0.77 0.94,1.5 1.78,1.5 0.03,0 0.97,0 1.64,-0.42 -1.44,-0.45 -1.53,-1.72 -1.53,-1.92 0,-0.77 0.59,-1.28 1.39,-1.28 0.94,0 1.99,0.8 1.99,2.12 0,1.6 -1.71,2.47 -3.49,2.47 -1.53,0 -3.23,-0.87 -4.19,-2.61 -0.68,-1.29 -0.97,-2.86 -1.7,-6.9 l -2.75,0 c -0.7,0 -1.16,0 -1.16,-0.77 0,-0.48 0.46,-0.48 1.08,-0.48 l 2.58,0 c -0.03,-0.22 -2.22,-12.75 -3.06,-16.49 -0.17,-0.76 -0.77,-3.4 -2.44,-3.4 -0.03,0 -0.87,0 -1.53,0.4 1.42,0.46 1.53,1.72 1.53,1.92 0,0.77 -0.59,1.29 -1.39,1.29 -0.94,0 -1.98,-0.8 -1.98,-2.13 0,-1.56 1.64,-2.47 3.37,-2.47 2.23,0 3.77,2.3 4.19,3.06 1.25,2.35 2.04,6.63 2.12,7.05 z"
               inkscape:connector-curvature="0"
               style="fill:#000000;stroke-width:0" /><path
               id="path6038"
               d="m 540.98,412.53 3.41,0 c 0.7,0 1.16,0 1.16,0.76 0,0.49 -0.46,0.49 -1.08,0.49 l -3.25,0 c 0.81,4.42 1.08,6.03 1.36,7.04 0.17,0.77 0.94,1.5 1.78,1.5 0.03,0 0.97,0 1.64,-0.42 -1.44,-0.45 -1.53,-1.72 -1.53,-1.92 0,-0.77 0.59,-1.28 1.39,-1.28 0.94,0 1.98,0.8 1.98,2.12 0,1.6 -1.7,2.47 -3.48,2.47 -1.53,0 -3.24,-0.87 -4.19,-2.61 -0.69,-1.29 -0.97,-2.86 -1.7,-6.9 l -2.75,0 c -0.7,0 -1.16,0 -1.16,-0.77 0,-0.48 0.46,-0.48 1.08,-0.48 l 2.58,0 c -0.03,-0.22 -2.22,-12.75 -3.06,-16.49 -0.18,-0.76 -0.77,-3.4 -2.44,-3.4 -0.03,0 -0.88,0 -1.53,0.4 1.42,0.46 1.53,1.72 1.53,1.92 0,0.77 -0.6,1.29 -1.39,1.29 -0.94,0 -1.99,-0.8 -1.99,-2.13 0,-1.56 1.64,-2.47 3.38,-2.47 2.23,0 3.76,2.3 4.19,3.06 1.25,2.35 2.04,6.63 2.12,7.05 z"
               inkscape:connector-curvature="0"
               style="fill:#000000;stroke-width:0" /></g>        </g>
        <g
           transform="translate(66.221086,-119.69344)"
           id="g6021">
          <g
             style="font-style:normal;font-variant:normal;font-weight:normal;font-stretch:normal;letter-spacing:normal;word-spacing:normal;text-anchor:start;fill:none;fill-opacity:1;fill-rule:evenodd;stroke:#000000;stroke-width:0.76443774;stroke-linecap:butt;stroke-linejoin:miter;stroke-miterlimit:10.43299961;stroke-dasharray:none;stroke-dashoffset:0;stroke-opacity:1"
             id="g6023"
             transform="matrix(0.28559579,0,0,-0.28559579,-49.979264,289.20463)"
             xml:space="preserve"
             stroke-miterlimit="10.433"
             font-style="normal"
             font-variant="normal"
             font-weight="normal"
             font-stretch="normal"
             font-size-adjust="none"
             letter-spacing="normal"
             word-spacing="normal"><path
               style="fill:#000000;stroke-width:0"
               inkscape:connector-curvature="0"
               d="m 457.16,397.57 -0.01,-0.02 0,-0.03 -0.01,-0.03 0,-0.02 -0.01,-0.03 -0.01,-0.02 0,-0.02 -0.01,-0.03 0,-0.02 -0.01,-0.02 0,-0.02 0,-0.02 -0.01,-0.02 0,-0.02 -0.01,-0.04 -0.01,-0.03 0,-0.03 -0.01,-0.03 -0.01,-0.03 0,-0.03 -0.01,-0.02 0,-0.02 0,-0.03 -0.01,-0.02 0,-0.02 0,-0.01 0,-0.02 0,-0.01 -0.01,-0.02 0,-0.01 0,-0.02 0,-0.01 0,-0.01 0,-0.02 0,-0.02 0,-0.02 c 0,-0.74 0.55,-1.35 1.39,-1.35 1.05,0 1.64,0.91 1.75,1.05 0.23,0.45 1.84,7.13 3.19,12.52 0.98,-2 2.58,-3.35 4.92,-3.35 l -0.05,1.1 c -3.48,0 -4.28,3.98 -4.28,4.43 0,0.21 0.25,1.19 0.39,1.85 1.41,5.58 1.91,7.37 3,9.36 2.14,3.64 4.63,4.73 6.17,4.73 1.85,0 3.44,-1.44 3.44,-4.87 0,-2.75 -1.44,-8.33 -2.78,-10.77 -1.66,-3.14 -4.05,-4.73 -5.94,-4.73 l 0,0 0.05,-1.1 c 5.83,0 12.27,7.03 12.27,14.46 0,5.28 -3.3,8.1 -6.94,8.1 -4.83,0 -10.06,-4.98 -11.55,-11.06 z"
               id="path6025" /><path
               style="fill:#000000;stroke-width:0"
               inkscape:connector-curvature="0"
               d="m 504.01,433.37 -1.19,0 c -0.39,-3.42 -0.91,-7.92 -7.5,-7.92 l -3.48,0 c -1.63,0 -1.68,0.28 -1.68,1.36 l 0,18.33 c 0,1.15 0,1.61 3.29,1.61 l 1.21,0 0,1.25 c -0.73,-0.04 -5.18,-0.14 -6.09,-0.14 -1.33,0 -5.27,0.14 -5.3,0.14 l 0,-1.25 0.83,0 c 2.69,0 2.77,-0.35 2.77,-1.58 l 0,-18.14 c 0,-1.19 -0.08,-1.58 -2.77,-1.58 l -0.83,0 0,-1.25 19.69,0 z"
               id="path6027" /><path
               style="fill:#000000;stroke-width:0"
               inkscape:connector-curvature="0"
               d="m 507.93,448 0,-1.25 0.85,0 c 2.68,0 2.75,-0.35 2.75,-1.58 l 0,-18.14 c 0,-1.19 -0.07,-1.58 -2.75,-1.58 l -0.85,0 0,-1.25 13.74,0 -0.94,1.25 -4.36,0 c -1.64,0 -1.67,0.28 -1.67,1.36 l 0,18.58 c 0,1.07 0.03,1.36 1.67,1.36 l 4.33,0 c 2.95,0 5.53,-1.22 7.14,-3.29 1.42,-1.87 1.98,-4.53 1.98,-7.56 0,-4.03 -1.01,-6.12 -2.23,-7.59 -1.56,-1.78 -4.08,-2.86 -6.86,-2.86 l 0.94,-1.25 c 6.4,0 11.75,5.16 11.75,11.7 0,6.63 -5.27,12.1 -11.75,12.1 z"
               id="path6029" /><path
               style="fill:#000000;stroke-width:0"
               inkscape:connector-curvature="0"
               d="m 550.48,448.25 -0.02,0.05 -0.02,0.05 -0.02,0.04 -0.02,0.05 -0.01,0.04 -0.02,0.04 -0.02,0.04 -0.02,0.04 -0.02,0.04 -0.02,0.03 -0.02,0.04 -0.02,0.03 -0.02,0.03 -0.02,0.03 -0.02,0.02 -0.03,0.03 -0.02,0.02 -0.03,0.03 -0.03,0.02 -0.03,0.02 -0.03,0.01 -0.04,0.02 -0.03,0.01 -0.04,0.02 -0.04,0.01 -0.05,0.01 -0.04,0 -0.05,0.01 -0.05,0.01 -0.06,0 -0.05,0 -0.06,0 c -0.67,0 -0.77,-0.25 -0.99,-0.79 l -8.04,-20.39 c -0.35,-0.88 -0.94,-2.41 -4.08,-2.41 l 0,-1.25 c 1.19,0.11 2.4,0.14 3.59,0.14 1.39,0 3.97,-0.14 4.19,-0.14 l 0,1.25 c -1.53,0 -2.52,0.7 -2.52,1.67 0,0.28 0.04,0.36 0.18,0.7 l 1.67,4.29 0.5,1.26 4.45,11.31 4.45,-11.31 -8.9,0 -0.5,-1.26 9.9,0 2.02,-5.08 c 0.06,-0.19 0.17,-0.42 0.17,-0.6 0,-0.98 -1.87,-0.98 -2.83,-0.98 l 0,-1.25 c 1.75,0.06 3.99,0.14 5.21,0.14 1.64,0 4.25,-0.11 4.62,-0.14 l 0,1.25 -0.69,0 c -2.34,0 -2.57,0.36 -2.96,1.33 z"
               id="path6031" /></g>        </g>
        <g
           transform="translate(9.945437,-96.159163)"
           id="g6679">
          <g
             style="font-style:normal;font-variant:normal;font-weight:normal;font-stretch:normal;letter-spacing:normal;word-spacing:normal;text-anchor:start;fill:none;fill-opacity:1;fill-rule:evenodd;stroke:#000000;stroke-width:0.76443774;stroke-linecap:butt;stroke-linejoin:miter;stroke-miterlimit:10.43299961;stroke-dasharray:none;stroke-dashoffset:0;stroke-opacity:1"
             id="g6681"
             transform="matrix(0.28559579,0,0,-0.28559579,-49.979264,289.20463)"
             xml:space="preserve"
             stroke-miterlimit="10.433"
             font-style="normal"
             font-variant="normal"
             font-weight="normal"
             font-stretch="normal"
             font-size-adjust="none"
             letter-spacing="normal"
             word-spacing="normal"><path
               style="fill:#000000;stroke-width:0"
               inkscape:connector-curvature="0"
               d="m 457.16,397.57 -0.01,-0.02 0,-0.03 -0.01,-0.03 0,-0.02 -0.01,-0.03 -0.01,-0.02 0,-0.02 -0.01,-0.03 0,-0.02 -0.01,-0.02 0,-0.02 0,-0.02 -0.01,-0.02 0,-0.02 -0.01,-0.04 -0.01,-0.03 0,-0.03 -0.01,-0.03 -0.01,-0.03 0,-0.03 -0.01,-0.02 0,-0.02 0,-0.03 -0.01,-0.02 0,-0.02 0,-0.01 0,-0.02 0,-0.01 -0.01,-0.02 0,-0.01 0,-0.02 0,-0.01 0,-0.01 0,-0.02 0,-0.02 0,-0.02 c 0,-0.74 0.55,-1.35 1.39,-1.35 1.05,0 1.64,0.91 1.75,1.05 0.23,0.45 1.84,7.13 3.19,12.52 0.98,-2 2.58,-3.35 4.92,-3.35 l -0.05,1.1 c -3.48,0 -4.28,3.98 -4.28,4.43 0,0.21 0.25,1.19 0.39,1.85 1.41,5.58 1.91,7.37 3,9.36 2.14,3.64 4.63,4.73 6.17,4.73 1.85,0 3.44,-1.44 3.44,-4.87 0,-2.75 -1.44,-8.33 -2.78,-10.77 -1.66,-3.14 -4.05,-4.73 -5.94,-4.73 l 0,0 0.05,-1.1 c 5.83,0 12.27,7.03 12.27,14.46 0,5.28 -3.3,8.1 -6.94,8.1 -4.83,0 -10.06,-4.98 -11.55,-11.06 z"
               id="path6683" /><path
               style="fill:#000000;stroke-width:0"
               inkscape:connector-curvature="0"
               d="m 496.65,432.14 0.07,0 0.06,0 0.06,0 0.06,0 0.06,0 0.05,0 0.05,0.01 0.05,0 0.05,0 0.04,0.01 0.04,0.01 0.04,0.01 0.04,0.01 0.03,0.01 0.04,0.02 0.03,0.01 0.02,0.02 0.03,0.03 0.02,0.02 0.03,0.03 0.01,0.03 0.02,0.03 0.01,0.02 0.01,0.02 0.01,0.02 0,0.02 0.01,0.02 0,0.02 0.01,0.02 0.01,0.03 0,0.02 0,0.03 0.01,0.02 0,0.03 0,0.03 0.01,0.03 0,0.03 0,0.03 0,0.03 0,0.04 0,0.03 0,0.04 c 0,3.06 -1.72,6.83 -6.9,6.83 -4.57,0 -8.05,-3.63 -8.05,-7.93 0,-4.42 3.87,-7.96 8.5,-7.96 4.7,0 6.45,3.76 6.45,4.53 0,0.14 -0.08,0.48 -0.59,0.48 -0.45,0 -0.53,-0.22 -0.63,-0.56 -1.09,-2.81 -3.73,-3.35 -4.98,-3.35 -1.64,0 -3.2,0.74 -4.25,2.07 -1.3,1.62 -1.33,3.75 -1.33,5.11 l 0.03,0.9 c 0.39,4.92 3.52,5.72 4.85,5.72 4.28,0 4.42,-4.84 4.47,-5.72 l -9.32,0 -0.03,-0.9 z"
               id="path6685" /><path
               style="fill:#000000;stroke-width:0"
               inkscape:connector-curvature="0"
               d="m 510.89,432.01 0,0 0,0.01 0,0 -0.01,0 0,0 0,0.01 -0.01,0 0,0 0,0.01 -0.01,0 -0.01,0.01 -0.01,0.01 -0.01,0.01 -0.01,0.02 -0.01,0.01 -0.01,0.01 -0.01,0.02 -0.01,0.01 -0.02,0.01 -0.02,0.03 -0.03,0.03 -0.01,0.02 -0.01,0.01 -0.01,0.01 -0.01,0.02 -0.01,0.01 -0.01,0.01 -0.01,0.01 -0.01,0.01 0,0.01 0,0 -0.01,0.01 0,0 0,0.01 0,0 -0.01,0 0,0.01 0,0 0,0 0,0 0,0.01 c 0,0.1 2.3,2.57 2.61,2.89 1.22,1.36 2.44,2.68 5.2,2.71 l 0,1.25 c -0.98,-0.06 -1.98,-0.14 -2.94,-0.14 -1.04,0 -2.4,0.04 -3.43,0.14 l 0,-1.25 c 0.57,-0.1 0.68,-0.48 0.68,-0.79 0,-0.08 0,-0.6 -0.51,-1.19 l -2.44,-2.75 -2.89,3.3 c -0.36,0.39 -0.39,0.56 -0.39,0.7 0,0.52 0.48,0.73 0.94,0.73 l 0,1.25 c -1.28,-0.1 -2.61,-0.14 -3.91,-0.14 -1.03,0 -2.36,0.04 -3.37,0.14 l 0,-1.25 c 1.61,0 2.51,0 3.42,-1.04 l 4.34,-5.02 c 0.05,-0.03 0.28,-0.31 0.28,-0.34 0,-0.11 -2.61,-2.97 -2.95,-3.36 -1.3,-1.39 -2.48,-2.67 -5.27,-2.75 l 0,-1.25 c 1.05,0.06 1.82,0.14 2.9,0.14 1.04,0 2.43,-0.03 3.48,-0.14 l 0,1.25 c -0.42,0.08 -0.7,0.31 -0.7,0.81 0,0.66 0.39,1.11 0.95,1.7 l 2.44,2.69 3.03,-3.45 c 0.65,-0.74 0.65,-0.81 0.65,-1.02 0,-0.68 -0.79,-0.73 -0.93,-0.73 l 0,-1.25 c 0.31,0.03 2.82,0.14 3.93,0.14 1.11,0 2.24,-0.03 3.35,-0.14 l 0,1.25 c -2.33,0 -2.61,0.22 -3.42,1.12 z"
               id="path6687" /></g>        </g>
        <g
           id="g6995"
           transform="translate(30.052038,-115.96551)">
          <g
             word-spacing="normal"
             letter-spacing="normal"
             font-size-adjust="none"
             font-stretch="normal"
             font-weight="normal"
             font-variant="normal"
             font-style="normal"
             stroke-miterlimit="10.433"
             xml:space="preserve"
             transform="matrix(0.28559579,0,0,-0.28559579,-49.979264,289.20463)"
             id="g6997"
             style="font-style:normal;font-variant:normal;font-weight:normal;font-stretch:normal;letter-spacing:normal;word-spacing:normal;text-anchor:start;fill:none;fill-opacity:1;fill-rule:evenodd;stroke:#000000;stroke-width:0.76443774;stroke-linecap:butt;stroke-linejoin:miter;stroke-miterlimit:10.43299961;stroke-dasharray:none;stroke-dashoffset:0;stroke-opacity:1"><path
               id="path6999"
               d="m 457.16,397.57 -0.01,-0.02 0,-0.03 -0.01,-0.03 0,-0.02 -0.01,-0.03 -0.01,-0.02 0,-0.02 -0.01,-0.03 0,-0.02 -0.01,-0.02 0,-0.02 0,-0.02 -0.01,-0.02 0,-0.02 -0.01,-0.04 -0.01,-0.03 0,-0.03 -0.01,-0.03 -0.01,-0.03 0,-0.03 -0.01,-0.02 0,-0.02 0,-0.03 -0.01,-0.02 0,-0.02 0,-0.01 0,-0.02 0,-0.01 -0.01,-0.02 0,-0.01 0,-0.02 0,-0.01 0,-0.01 0,-0.02 0,-0.02 0,-0.02 c 0,-0.74 0.55,-1.35 1.39,-1.35 1.05,0 1.64,0.91 1.75,1.05 0.23,0.45 1.84,7.13 3.19,12.52 0.98,-2 2.58,-3.35 4.92,-3.35 l -0.05,1.1 c -3.48,0 -4.28,3.98 -4.28,4.43 0,0.21 0.25,1.19 0.39,1.85 1.41,5.58 1.91,7.37 3,9.36 2.14,3.64 4.63,4.73 6.17,4.73 1.85,0 3.44,-1.44 3.44,-4.87 0,-2.75 -1.44,-8.33 -2.78,-10.77 -1.66,-3.14 -4.05,-4.73 -5.94,-4.73 l 0,0 0.05,-1.1 c 5.83,0 12.27,7.03 12.27,14.46 0,5.28 -3.3,8.1 -6.94,8.1 -4.83,0 -10.06,-4.98 -11.55,-11.06 z"
               inkscape:connector-curvature="0"
               style="fill:#000000;stroke-width:0" /><path
               id="path7001"
               d="m 499.76,431.62 -0.01,0.41 -0.04,0.4 -0.05,0.4 -0.07,0.39 -0.1,0.39 -0.11,0.38 -0.13,0.37 -0.15,0.37 -0.17,0.36 -0.19,0.35 -0.2,0.34 -0.22,0.33 -0.23,0.32 -0.25,0.31 -0.27,0.29 -0.28,0.29 -0.3,0.27 -0.3,0.26 -0.33,0.24 -0.33,0.23 -0.35,0.22 -0.35,0.2 -0.37,0.18 -0.38,0.17 -0.39,0.15 -0.4,0.13 -0.41,0.11 -0.42,0.1 -0.43,0.07 -0.43,0.05 -0.44,0.04 -0.45,0.01 0,-0.99 c 2.06,0 3.53,-0.97 4.3,-2.05 0.97,-1.35 1.08,-3.1 1.08,-4.78 0,-1.67 -0.11,-3.51 -1.13,-4.95 -0.94,-1.31 -2.53,-2.02 -4.25,-2.02 l 0,0 c -1.28,0 -3.17,0.43 -4.31,2.13 -0.94,1.44 -1.05,3.23 -1.05,4.84 0,1.5 0.03,3.57 1.25,5.05 0.88,1.02 2.35,1.78 4.11,1.78 l 0,0.99 c -4.8,0 -8.53,-3.77 -8.53,-8.13 0,-4.33 3.83,-7.76 8.53,-7.76 4.7,0 8.55,3.43 8.55,7.76 z"
               inkscape:connector-curvature="0"
               style="fill:#000000;stroke-width:0" /><path
               id="path7003"
               d="m 510.8,418.7 -0.1,0 -0.1,0 -0.1,0 -0.1,0 -0.09,0 -0.09,0 -0.09,0 -0.09,0 -0.08,0 -0.08,0 -0.08,0.01 -0.08,0 -0.07,0 -0.07,0 -0.07,0.01 -0.07,0 -0.06,0.01 -0.07,0 -0.11,0.01 -0.11,0.02 -0.11,0.02 -0.09,0.02 -0.09,0.02 -0.08,0.03 -0.07,0.04 -0.07,0.03 -0.06,0.05 -0.05,0.04 -0.05,0.06 -0.04,0.05 -0.04,0.07 -0.03,0.07 -0.03,0.07 -0.02,0.08 -0.02,0.09 -0.01,0.1 -0.02,0.1 0,0.12 -0.01,0.11 0,0.13 0,0.14 0,5.67 c 0.17,-0.17 1.81,-2.01 4.73,-2.01 l -0.2,0.96 c -3.08,0 -4.44,2.69 -4.53,2.89 l 0,8.1 c 1.04,1.73 3.06,2.64 4.9,2.64 2.92,0 5.19,-3.06 5.19,-6.72 0,-3.98 -2.61,-6.91 -5.56,-6.91 l 0.2,-0.96 c 4.59,0 8.53,3.43 8.53,7.87 0,4.28 -3.55,7.83 -7.97,7.83 -1.98,0 -4.01,-0.72 -5.44,-2.13 l 0,2.13 -5.23,-0.38 0,-1.25 c 2.44,0 2.63,-0.18 2.63,-1.64 l 0,-16.09 c 0,-1.5 -0.36,-1.5 -2.63,-1.5 l 0,-1.27 c 0.08,0 2.52,0.14 3.97,0.14 1.3,0 3.7,-0.09 4.01,-0.14 z"
               inkscape:connector-curvature="0"
               style="fill:#000000;stroke-width:0" /><path
               id="path7005"
               d="m 530.07,437.96 5.44,0 0,1.25 -5.44,0 0,6.41 -1.18,0 c -0.04,-3.12 -1.46,-6.58 -4.8,-6.69 l 0,-0.97 3.23,0 0,-9.4 c 0,-3.91 2.93,-4.7 4.88,-4.7 2.34,0 3.94,1.98 3.94,4.73 l 0,1.92 -1.19,0 0,-1.89 c 0,-2.36 -1.11,-3.66 -2.47,-3.66 -2.41,0 -2.41,2.93 -2.41,3.57 z"
               inkscape:connector-curvature="0"
               style="fill:#000000;stroke-width:0" /></g>        </g>
      </g>
    </g>
  </g>
</svg>
