<?xml version="1.0" encoding="UTF-8" standalone="no"?>
<!-- Created with Inkscape (http://www.inkscape.org/) -->

<svg
   xmlns:dc="http://purl.org/dc/elements/1.1/"
   xmlns:cc="http://creativecommons.org/ns#"
   xmlns:rdf="http://www.w3.org/1999/02/22-rdf-syntax-ns#"
   xmlns:svg="http://www.w3.org/2000/svg"
   xmlns="http://www.w3.org/2000/svg"
   xmlns:sodipodi="http://sodipodi.sourceforge.net/DTD/sodipodi-0.dtd"
   xmlns:inkscape="http://www.inkscape.org/namespaces/inkscape"
   width="66.878571mm"
   height="56.963432mm"
   viewBox="0 0 66.878571 56.963432"
   version="1.1"
   id="svg8"
   inkscape:version="0.92.2 5c3e80d, 2017-08-06"
   sodipodi:docname="fccvshcppaths.svg"
   inkscape:export-filename="/Users/montmorency/pymodules/NNWA/HomePage/tb_recursion/metallurgy/fccvshcppaths.png"
   inkscape:export-xdpi="600"
   inkscape:export-ydpi="600">
  <sodipodi:namedview
     id="base"
     pagecolor="#ffffff"
     bordercolor="#666666"
     borderopacity="1.0"
     inkscape:pageopacity="0.0"
     inkscape:pageshadow="2"
     inkscape:zoom="0.90509668"
     inkscape:cx="245.4149"
     inkscape:cy="78.935009"
     inkscape:document-units="mm"
     inkscape:current-layer="layer1"
     showgrid="false"
     inkscape:window-width="1382"
     inkscape:window-height="664"
     inkscape:window-x="-11"
     inkscape:window-y="0"
     inkscape:window-maximized="0"
     inkscape:snap-global="false"
     fit-margin-top="0"
     fit-margin-left="0"
     fit-margin-right="0"
     fit-margin-bottom="0" />
  <defs
     id="defs2" />
  <metadata
     id="metadata5">
    <rdf:RDF>
      <cc:Work
         rdf:about="">
        <dc:format>image/svg+xml</dc:format>
        <dc:type
           rdf:resource="http://purl.org/dc/dcmitype/StillImage" />
        <dc:title></dc:title>
      </cc:Work>
    </rdf:RDF>
  </metadata>
  <g
     inkscape:label="Layer 1"
     inkscape:groupmode="layer"
     id="layer1"
     transform="translate(-16.78957,-6.0275699)">
    <g
       id="g1980"
       transform="matrix(0.88750129,0,0,0.88750129,1.8888049,0.67809299)">
      <path
         style="fill:none;stroke:#000000;stroke-width:0.57902879;stroke-miterlimit:4;stroke-dasharray:none;stroke-opacity:1"
         d="M 69.479451,67.383748 35.866822,67.383747 19.060509,38.274355 35.866825,9.1649655 69.479454,9.1649671 86.285767,38.274358 Z"
         inkscape:randomized="0"
         inkscape:rounded="0"
         inkscape:flatsided="true"
         sodipodi:arg2="1.5707963"
         sodipodi:arg1="1.0471976"
         sodipodi:r2="29.109392"
         sodipodi:r1="33.612629"
         sodipodi:cy="38.274357"
         sodipodi:cx="52.673138"
         sodipodi:sides="6"
         id="path3701"
         sodipodi:type="star" />
      <path
         inkscape:connector-curvature="0"
         id="path4569"
         d="M 69.479454,9.1649663 52.663832,38.290477 86.285766,38.27436"
         style="fill:none;stroke:#000000;stroke-width:0.30640271px;stroke-linecap:butt;stroke-linejoin:miter;stroke-opacity:1" />
      <path
         inkscape:connector-curvature="0"
         id="path4571"
         d="M 69.47945,67.383744 52.663832,38.290477 35.866823,67.383744"
         style="fill:none;stroke:#000000;stroke-width:0.30640271px;stroke-linecap:butt;stroke-linejoin:miter;stroke-opacity:1" />
      <path
         sodipodi:nodetypes="ccc"
         inkscape:connector-curvature="0"
         id="path4573"
         d="M 19.06051,38.274354 52.663832,38.290477 35.866826,9.1649647"
         style="fill:none;stroke:#000000;stroke-width:0.30640271px;stroke-linecap:butt;stroke-linejoin:miter;stroke-opacity:1" />
      <circle
         r="1.5315282"
         cy="52.62804"
         cx="53.137409"
         id="circle4559"
         style="fill:#000027;fill-opacity:1;stroke:#000000;stroke-width:0.30159351;stroke-miterlimit:4;stroke-dasharray:none;stroke-opacity:1" />
      <path
         inkscape:transform-center-y="-0.59927091"
         d="m 72.100429,54.811852 -4.808097,0 2.404049,-4.163934 z"
         inkscape:randomized="0"
         inkscape:rounded="0"
         inkscape:flatsided="true"
         sodipodi:arg2="1.5707963"
         sodipodi:arg1="0.52359878"
         sodipodi:r2="1.387978"
         sodipodi:r1="2.7759559"
         sodipodi:cy="53.423874"
         sodipodi:cx="69.696381"
         sodipodi:sides="3"
         id="path4543"
         style="fill:none;fill-opacity:1;stroke:#000000;stroke-width:0.4073863;stroke-miterlimit:4;stroke-dasharray:none;stroke-opacity:1"
         sodipodi:type="star" />
      <path
         sodipodi:type="star"
         style="fill:none;fill-opacity:1;stroke:#000000;stroke-width:0.4073863;stroke-miterlimit:4;stroke-dasharray:none;stroke-opacity:1"
         id="path4563"
         sodipodi:sides="3"
         sodipodi:cx="36.578438"
         sodipodi:cy="53.423874"
         sodipodi:r1="2.7759559"
         sodipodi:r2="1.387978"
         sodipodi:arg1="0.52359878"
         sodipodi:arg2="1.5707963"
         inkscape:flatsided="true"
         inkscape:rounded="0"
         inkscape:randomized="0"
         d="m 38.982486,54.811852 -4.808097,0 2.404049,-4.163934 z"
         inkscape:transform-center-y="-0.59927091" />
      <circle
         style="fill:#000027;fill-opacity:1;stroke:#000000;stroke-width:0.30159351;stroke-miterlimit:4;stroke-dasharray:none;stroke-opacity:1"
         id="circle4530"
         cx="36.578438"
         cy="23.765911"
         r="1.5315282" />
      <path
         inkscape:transform-center-x="1.2950129e-06"
         sodipodi:type="star"
         style="fill:none;fill-opacity:1;stroke:#000000;stroke-width:0.3337037;stroke-miterlimit:4;stroke-dasharray:none;stroke-opacity:1"
         id="path4567"
         sodipodi:sides="3"
         sodipodi:cx="69.696388"
         sodipodi:cy="24.900391"
         sodipodi:r1="2.2738781"
         sodipodi:r2="1.136939"
         sodipodi:arg1="0.52359878"
         sodipodi:arg2="1.5707963"
         inkscape:flatsided="true"
         inkscape:rounded="0"
         inkscape:randomized="0"
         d="m 71.665624,26.03733 -3.938472,0 1.969236,-3.410817 z"
         inkscape:transform-center-y="-0.49088265" />
      <circle
         style="fill:#000027;fill-opacity:1;stroke:#000000;stroke-width:0.30159351;stroke-miterlimit:4;stroke-dasharray:none;stroke-opacity:1"
         id="circle4561"
         cx="69.696381"
         cy="23.00997"
         r="1.5315282" />
      <path
         inkscape:transform-center-y="-0.59927091"
         d="m 55.541458,25.949726 -4.808097,0 2.404048,-4.163933 z"
         inkscape:randomized="0"
         inkscape:rounded="0"
         inkscape:flatsided="true"
         sodipodi:arg2="1.5707963"
         sodipodi:arg1="0.52359878"
         sodipodi:r2="1.387978"
         sodipodi:r1="2.7759559"
         sodipodi:cy="24.561749"
         sodipodi:cx="53.137409"
         sodipodi:sides="3"
         id="path4565"
         style="fill:none;fill-opacity:1;stroke:#000000;stroke-width:0.4073863;stroke-miterlimit:4;stroke-dasharray:none;stroke-opacity:1"
         sodipodi:type="star" />
      <g
         id="g1950">
        <path
           style="font-style:normal;font-variant:normal;font-weight:normal;font-stretch:normal;letter-spacing:normal;word-spacing:normal;text-anchor:start;fill:#000000;fill-opacity:1;fill-rule:evenodd;stroke:#000000;stroke-width:0;stroke-linecap:butt;stroke-linejoin:miter;stroke-miterlimit:10.43299961;stroke-dasharray:none;stroke-dashoffset:0;stroke-opacity:1"
           inkscape:connector-curvature="0"
           d="m 59.198114,32.438513 v -0.007 -0.0084 -0.007 -0.007 -0.007 -0.007 -0.0056 -0.007 -0.0056 -0.0056 l -0.0014,-0.0056 v -0.0056 -0.0056 -0.0042 -0.0056 l -0.0014,-0.0042 -0.0014,-0.0098 v -0.0084 l -0.0028,-0.007 -0.0014,-0.007 -0.0028,-0.007 -0.0028,-0.0056 -0.0028,-0.0056 -0.0028,-0.0042 -0.0042,-0.0042 -0.0042,-0.0042 -0.0056,-0.0042 -0.0056,-0.0028 -0.0056,-0.0028 -0.0042,-0.0014 -0.0028,-0.0014 h -0.0042 l -0.0028,-0.0014 -0.0042,-0.0014 h -0.0042 l -0.0042,-0.0014 h -0.0042 l -0.0056,-0.0014 h -0.0042 -0.0056 l -0.0042,-0.0014 h -0.0056 -0.0056 -0.007 -0.0056 -0.0056 l -0.007,-0.0014 h -0.007 -0.007 -0.007 -0.007 c -0.43318,0.447198 -1.047203,0.447198 -1.270101,0.447198 v 0.217291 c 0.140187,0 0.550938,0 0.912622,-0.182244 v 3.618246 c 0,0.252338 -0.01963,0.335049 -0.647667,0.335049 h -0.224301 v 0.217291 c 0.245329,-0.02243 0.852342,-0.02243 1.131315,-0.02243 0.280376,0 0.885987,0 1.131315,0.02243 v -0.217291 h -0.222898 c -0.628041,0 -0.650471,-0.0757 -0.650471,-0.335049 z"
           id="path900" />
        <path
           style="font-style:normal;font-variant:normal;font-weight:normal;font-stretch:normal;letter-spacing:normal;word-spacing:normal;text-anchor:start;fill:#000000;fill-opacity:1;fill-rule:evenodd;stroke:#000000;stroke-width:0;stroke-linecap:butt;stroke-linejoin:miter;stroke-miterlimit:10.43299961;stroke-dasharray:none;stroke-dashoffset:0;stroke-opacity:1"
           inkscape:connector-curvature="0"
           d="m 89.896981,36.371028 0.740192,-0.719163 c 1.087857,-0.96309 1.50842,-1.340195 1.50842,-2.03833 0,-0.797668 -0.628041,-1.357017 -1.480383,-1.357017 -0.790659,0 -1.307952,0.644863 -1.307952,1.265895 0,0.391124 0.35047,0.391124 0.370096,0.391124 0.120562,0 0.364488,-0.08411 0.364488,-0.370096 0,-0.182244 -0.124767,-0.364488 -0.370095,-0.364488 -0.05467,0 -0.07009,0 -0.08972,0.007 0.159815,-0.454208 0.53692,-0.712153 0.942062,-0.712153 0.635051,0 0.936454,0.56776 0.936454,1.139726 0,0.557947 -0.350469,1.110287 -0.733182,1.543467 l -1.340194,1.494401 c -0.07991,0.0757 -0.07991,0.08972 -0.07991,0.257946 h 2.592072 l 0.196263,-1.215428 h -0.175235 c -0.03505,0.210282 -0.08271,0.517293 -0.152804,0.622434 -0.05047,0.05467 -0.510284,0.05467 -0.663089,0.05467 z"
           id="path1253" />
      </g>
      <path
         id="path1455"
         d="m 33.823432,30.200192 -0.0014,-0.07851 -0.0042,-0.0757 -0.0084,-0.0757 -0.01121,-0.0743 -0.01402,-0.0743 -0.01822,-0.0715 -0.01963,-0.07009 -0.02383,-0.07009 -0.02523,-0.06729 -0.02944,-0.06589 -0.03084,-0.06449 -0.03364,-0.06168 -0.03645,-0.06028 -0.03925,-0.05748 -0.04066,-0.05607 -0.04346,-0.05327 -0.04626,-0.05047 -0.04766,-0.04907 -0.05047,-0.04486 -0.05187,-0.04346 -0.05327,-0.04065 -0.05607,-0.03645 -0.05748,-0.03505 -0.05888,-0.03084 -0.06028,-0.02804 -0.06168,-0.02383 -0.06449,-0.02103 -0.06449,-0.01822 -0.06729,-0.01262 -0.06729,-0.0098 -0.06869,-0.007 -0.07009,-0.0014 c -0.335049,0 -0.636453,0.11215 -0.887389,0.354675 v -1.359821 c 0.140188,0.04065 0.370096,0.08972 0.592994,0.08972 0.859351,0 1.347205,-0.63505 1.347205,-0.727574 0,-0.04206 -0.01963,-0.0771 -0.07009,-0.0771 -0.007,0 -0.01963,0 -0.05467,0.02243 -0.140188,0.06308 -0.482246,0.20187 -0.950473,0.20187 -0.277572,0 -0.600004,-0.04907 -0.929445,-0.194861 -0.05467,-0.01963 -0.07009,-0.01963 -0.08271,-0.01963 -0.07009,0 -0.07009,0.05467 -0.07009,0.165421 v 2.06777 c 0,0.124767 0,0.182244 0.09813,0.182244 0.04906,0 0.06168,-0.02243 0.08972,-0.06309 0.0771,-0.11215 0.33645,-0.489255 0.901407,-0.489255 0.363086,0 0.538321,0.322432 0.592994,0.447199 0.113552,0.257945 0.127571,0.529909 0.127571,0.880379 0,0.243927 0,0.66449 -0.169627,0.957482 -0.165422,0.271964 -0.424769,0.452807 -0.745799,0.452807 -0.510283,0 -0.907015,-0.370096 -1.027576,-0.780846 0.02103,0.0056 0.04346,0.01262 0.120561,0.01262 0.229908,0 0.347666,-0.175235 0.347666,-0.342058 0,-0.168226 -0.117758,-0.342058 -0.347666,-0.342058 -0.09953,0 -0.344861,0.04907 -0.344861,0.371497 0,0.600004 0.482245,1.275709 1.267297,1.275709 0.807481,0 1.521037,-0.670098 1.521037,-1.556084 z"
         inkscape:connector-curvature="0"
         style="font-style:normal;font-variant:normal;font-weight:normal;font-stretch:normal;letter-spacing:normal;word-spacing:normal;text-anchor:start;fill:#000000;fill-opacity:1;fill-rule:evenodd;stroke:#000000;stroke-width:0;stroke-linecap:butt;stroke-linejoin:miter;stroke-miterlimit:10.43299961;stroke-dasharray:none;stroke-dashoffset:0;stroke-opacity:1" />
      <path
         d="m 69.739132,47.237525 0.05327,-0.01823 0.05187,-0.02103 0.05187,-0.02103 0.04907,-0.02383 0.04907,-0.02523 0.04766,-0.02663 0.04626,-0.02804 0.04486,-0.03084 0.04346,-0.03084 0.04346,-0.03224 0.04065,-0.03364 0.03925,-0.03505 0.03785,-0.03645 0.03645,-0.03785 0.03505,-0.03785 0.03365,-0.04065 0.03084,-0.04066 0.02944,-0.04206 0.02804,-0.04206 0.02664,-0.04486 0.02523,-0.04486 0.02243,-0.04486 0.01963,-0.04626 0.01963,-0.04766 0.01542,-0.04766 0.01542,-0.04766 0.01262,-0.04907 0.0098,-0.05047 0.0084,-0.05047 0.0056,-0.05047 0.0028,-0.05047 0.0014,-0.05187 c 0,-0.571966 -0.615425,-0.964491 -1.285522,-0.964491 -0.705144,0 -1.235054,0.420563 -1.235054,0.950472 0,0.23131 0.152805,0.364489 0.356077,0.364489 0.215889,0 0.356077,-0.154207 0.356077,-0.357479 0,-0.347666 -0.329442,-0.347666 -0.431779,-0.347666 0.214488,-0.342058 0.677107,-0.434582 0.928043,-0.434582 0.284581,0 0.670098,0.154207 0.670098,0.782248 0,0.08551 -0.01542,0.489255 -0.196263,0.797668 -0.20888,0.335049 -0.447199,0.354675 -0.61963,0.363086 -0.05748,0.007 -0.2243,0.01963 -0.274768,0.01963 -0.05467,0.007 -0.105141,0.01402 -0.105141,0.08411 0,0.0757 0.05047,0.0757 0.169627,0.0757 h 0.30561 c 0.57477,0 0.832715,0.475236 0.832715,1.162156 0,0.947669 -0.482246,1.150942 -0.790659,1.150942 -0.300002,0 -0.824304,-0.117758 -1.066829,-0.52991 0.242525,0.03364 0.459816,-0.120562 0.459816,-0.385516 0,-0.250936 -0.187851,-0.389722 -0.392526,-0.389722 -0.165421,0 -0.389722,0.09673 -0.389722,0.405142 0,0.635051 0.64907,1.094867 1.411691,1.094867 0.85094,0 1.487392,-0.635051 1.487392,-1.345803 0,-0.57477 -0.441591,-1.117296 -1.166362,-1.264493 z"
         id="path977"
         inkscape:connector-curvature="0"
         style="font-style:normal;font-variant:normal;font-weight:normal;font-stretch:normal;letter-spacing:normal;word-spacing:normal;text-anchor:start;fill:#000000;fill-opacity:1;fill-rule:evenodd;stroke:#000000;stroke-width:0;stroke-linecap:butt;stroke-linejoin:miter;stroke-miterlimit:10.43299961;stroke-dasharray:none;stroke-dashoffset:0;stroke-opacity:1" />
      <g
         word-spacing="normal"
         letter-spacing="normal"
         font-size-adjust="none"
         font-stretch="normal"
         font-weight="normal"
         font-variant="normal"
         font-style="normal"
         stroke-miterlimit="10.433"
         xml:space="preserve"
         transform="matrix(0.12575119,0,0,-0.12575119,6.7230875,82.149905)"
         id="g1566"
         style="font-style:normal;font-variant:normal;font-weight:normal;font-stretch:normal;letter-spacing:normal;word-spacing:normal;text-anchor:start;fill:none;fill-opacity:1;fill-rule:evenodd;stroke:#000000;stroke-linecap:butt;stroke-linejoin:miter;stroke-miterlimit:10.43299961;stroke-dasharray:none;stroke-dashoffset:0;stroke-opacity:1"><path
           id="path1558"
           d="m 470.16,414.42 v -4.33 c 0,-1.8 -0.09,-2.34 -3.78,-2.34 h -1.05 v -1.55 c 2.05,0.16 4.64,0.16 6.74,0.16 2.09,0 4.73,0 6.76,-0.16 v 1.55 h -1.04 c -3.69,0 -3.79,0.54 -3.79,2.34 v 4.33 h 4.99 v 1.54 H 474 v 22.68 c 0,1 0,1.29 -0.79,1.29 -0.46,0 -0.6,0 -1,-0.61 l -15.3,-23.36 h 1.41 l 12.15,18.58 v -18.58 h -12.15 -1.41 v -1.54 z"
           inkscape:connector-curvature="0"
           style="fill:#000000;stroke-width:0" /><path
           id="path1560"
           d="m 502.35,441.67 0.01,0.03 0.01,0.03 0.02,0.03 0.01,0.03 0.01,0.02 0.01,0.03 0.01,0.03 v 0.02 l 0.02,0.05 0.02,0.05 0.01,0.04 0.02,0.05 0.01,0.04 0.01,0.04 0.01,0.03 0.01,0.04 0.01,0.03 0.01,0.03 v 0.03 l 0.01,0.02 0.01,0.03 v 0.02 l 0.01,0.02 v 0.02 0.02 0.02 l 0.01,0.01 v 0.02 0.01 0.01 0.01 0.01 0.01 0.01 0.01 0 c 0,0.55 -0.45,0.99 -1,0.99 -0.34,0 -0.7,-0.14 -0.84,-0.44 l -17.3,-47.48 c -0.25,-0.64 -0.25,-0.85 -0.25,-0.89 0,-0.55 0.45,-1 1,-1 0.66,0 0.8,0.34 1.09,1.18 z"
           inkscape:connector-curvature="0"
           style="fill:#000000;stroke-width:0" /><path
           id="path1562"
           d="m 519.89,423.73 0.38,0.13 0.37,0.15 0.36,0.15 0.36,0.17 0.35,0.18 0.33,0.19 0.33,0.2 0.33,0.22 0.31,0.22 0.3,0.23 0.29,0.24 0.28,0.25 0.27,0.26 0.26,0.27 0.25,0.27 0.24,0.29 0.23,0.29 0.21,0.3 0.2,0.3 0.19,0.32 0.17,0.32 0.16,0.32 0.15,0.33 0.13,0.34 0.12,0.34 0.1,0.34 0.09,0.35 0.07,0.36 0.06,0.36 0.04,0.36 0.03,0.36 v 0.37 c 0,4.08 -4.38,6.88 -9.17,6.88 -5.03,0 -8.81,-3 -8.81,-6.78 0,-1.65 1.09,-2.6 2.55,-2.6 1.53,0 2.53,1.1 2.53,2.55 0,2.48 -2.34,2.48 -3.08,2.48 1.53,2.44 4.83,3.1 6.63,3.1 2.03,0 4.78,-1.1 4.78,-5.58 0,-0.61 -0.11,-3.49 -1.41,-5.69 -1.48,-2.39 -3.19,-2.53 -4.42,-2.59 -0.41,-0.05 -1.6,-0.14 -1.95,-0.14 -0.4,-0.05 -0.75,-0.1 -0.75,-0.6 0,-0.54 0.35,-0.54 1.2,-0.54 h 2.19 c 4.09,0 5.93,-3.39 5.93,-8.29 0,-6.76 -3.43,-8.21 -5.64,-8.21 -2.14,0 -5.87,0.84 -7.61,3.78 1.74,-0.24 3.28,0.86 3.28,2.75 0,1.79 -1.34,2.78 -2.79,2.78 -1.19,0 -2.78,-0.69 -2.78,-2.89 0,-4.53 4.62,-7.81 10.06,-7.81 6.08,0 10.61,4.53 10.61,9.6 0,4.1 -3.14,7.97 -8.31,9.02 z"
           inkscape:connector-curvature="0"
           style="fill:#000000;stroke-width:0" /><path
           id="path1564"
           d="m 540.51,440.65 0.02,0.06 0.03,0.05 0.02,0.05 0.02,0.05 0.02,0.04 0.02,0.05 0.02,0.04 0.02,0.04 0.01,0.05 0.01,0.04 0.02,0.03 0.01,0.04 0.01,0.04 0.01,0.03 0.01,0.04 0.01,0.03 0.01,0.03 v 0.03 l 0.01,0.03 0.01,0.03 v 0.03 0.03 l 0.01,0.03 v 0.02 l 0.01,0.06 v 0.05 0.04 0.05 c 0,1.08 -0.98,1.92 -2.06,1.92 -1.33,0 -1.74,-1.09 -1.91,-1.64 l -4.61,-15.09 c -0.03,-0.06 -0.17,-0.52 -0.17,-0.56 0,-0.41 1.08,-0.77 1.36,-0.77 0.25,0 0.28,0.08 0.52,0.59 z"
           inkscape:connector-curvature="0"
           style="fill:#000000;stroke-width:0" /></g>      <circle
         style="opacity:1;fill:#ffffff;fill-opacity:1;stroke:#000000;stroke-width:0.57902879;stroke-miterlimit:4;stroke-dasharray:none;stroke-opacity:1"
         id="circle4555"
         cx="69.386871"
         cy="66.981735"
         r="2.9403782" />
      <circle
         style="opacity:1;fill:#ffffff;fill-opacity:1;stroke:#000000;stroke-width:0.57902879;stroke-miterlimit:4;stroke-dasharray:none;stroke-opacity:1"
         id="circle4557"
         cx="35.804649"
         cy="66.981735"
         r="2.9403782" />
      <circle
         style="opacity:1;fill:#ffffff;fill-opacity:1;stroke:#000000;stroke-width:0.57902879;stroke-miterlimit:4;stroke-dasharray:none;stroke-opacity:1"
         id="circle4545"
         cx="69.386871"
         cy="9.2574635"
         r="2.9403782" />
      <circle
         style="opacity:1;fill:#ffffff;fill-opacity:1;stroke:#000000;stroke-width:0.57902879;stroke-miterlimit:4;stroke-dasharray:none;stroke-opacity:1"
         id="circle4547"
         cx="35.804649"
         cy="9.2574635"
         r="2.9403782" />
      <circle
         style="opacity:1;fill:#ffffff;fill-opacity:1;stroke:#000000;stroke-width:0.57902879;stroke-miterlimit:4;stroke-dasharray:none;stroke-opacity:1"
         id="circle4549"
         cx="20.019463"
         cy="38.274357"
         r="2.9403782" />
      <circle
         style="opacity:1;fill:#ffffff;fill-opacity:1;stroke:#000000;stroke-width:0.57902879;stroke-miterlimit:4;stroke-dasharray:none;stroke-opacity:1"
         id="circle4551"
         cx="86.255348"
         cy="38.274357"
         r="2.9403782" />
      <circle
         r="2.9403782"
         cy="38.274357"
         cx="53.137409"
         id="path4508"
         style="opacity:1;fill:#ffffff;fill-opacity:1;stroke:#000000;stroke-width:0.57902879;stroke-miterlimit:4;stroke-dasharray:none;stroke-opacity:1" />
    </g>
  </g>
</svg>
